M48
;GenerationSoftware,Autodesk,EAGLE,9.7.0*%
;CreationDate,2025-12-08T03:05:16Z*%
FMAT,2
ICI,OFF
METRIC,TZ,000.000
T7C0.350
T6C0.800
T5C0.813
T4C0.841
T3C0.852
T2C0.900
T1C1.016
%
G90
M71
T1
X81280Y7620
X83820Y7620
X7620Y34290
X36830Y67310
X36830Y64770
X36830Y62230
X36830Y59690
X36830Y57150
X36830Y54610
X71120Y7620
X68580Y7620
X66040Y7620
X63500Y7620
X60960Y7620
X58420Y7620
X91440Y7620
X88900Y7620
X86360Y7620
X7620Y8890
X10160Y8890
X7620Y16510
X10160Y16510
X7620Y24130
X10160Y24130
X78740Y7620
X52070Y7620
X49530Y7620
X46990Y7620
X44450Y7620
X41910Y7620
X39370Y7620
X10160Y34290
T2
X36830Y40640
X44450Y40640
T3
X15240Y59690
X15240Y64770
X22860Y64770
X22860Y62230
X22860Y59690
X22860Y57150
X15240Y57150
X15240Y62230
T4
X27940Y19050
X27940Y21590
X27940Y24130
X27940Y26670
X27940Y29210
X27940Y31750
X27940Y34290
X27940Y36830
X27940Y39370
X27940Y41910
X17780Y16510
X27940Y16510
X17780Y19050
X27940Y13970
X27940Y11430
X27940Y8890
X17780Y8890
X17780Y11430
X17780Y21590
X17780Y24130
X17780Y26670
X17780Y29210
X17780Y31750
X17780Y34290
X17780Y36830
X17780Y39370
X17780Y41910
X17780Y13970
T5
X43180Y31750
X52070Y33020
X40640Y31750
X38100Y31750
X52070Y40640
T6
X34290Y80010
X24130Y90170
X26670Y90170
X36830Y90170
X39370Y90170
X34290Y90170
X31750Y90170
X29210Y90170
X41910Y90170
X39370Y80010
X41910Y80010
X24130Y80010
X26670Y80010
X29210Y80010
X31750Y80010
X36830Y80010
T7
X19050Y15240
X6350Y78740
X17780Y78740
X30480Y77470
X26007Y77470
X27940Y1270
X20320Y25400
X25400Y20320
X27940Y-1146
X49530Y15240
X55880Y7620
X16510Y5080
X26670Y7620
X38440Y69850
X16510Y69850
X12700Y21590
X22860Y20320
X23701Y23701
M30