G04 EAGLE Gerber RS-274X export*
G75*
%MOMM*%
%FSLAX34Y34*%
%LPD*%
%INSilkscreen Top*%
%IPPOS*%
%AMOC8*
5,1,8,0,0,1.08239X$1,22.5*%
G01*
G04 Define Apertures*
%ADD10C,0.152400*%
%ADD11C,0.500000*%
%ADD12C,0.120000*%
%ADD13C,0.203200*%
%ADD14C,0.127000*%
%ADD15R,1.524000X1.905000*%
G36*
X84363Y103965D02*
X83905Y103977D01*
X83462Y104013D01*
X83035Y104074D01*
X82624Y104159D01*
X82228Y104268D01*
X81848Y104401D01*
X81484Y104558D01*
X81136Y104740D01*
X80806Y104944D01*
X80495Y105169D01*
X80206Y105415D01*
X79936Y105682D01*
X79687Y105969D01*
X79458Y106277D01*
X79249Y106606D01*
X79060Y106956D01*
X78893Y107324D01*
X78748Y107709D01*
X78625Y108111D01*
X78525Y108529D01*
X78447Y108964D01*
X78391Y109415D01*
X78357Y109883D01*
X78346Y110367D01*
X78353Y110731D01*
X78371Y111085D01*
X78402Y111429D01*
X78446Y111763D01*
X78502Y112087D01*
X78570Y112401D01*
X78651Y112705D01*
X78745Y112999D01*
X78851Y113283D01*
X78969Y113557D01*
X79243Y114075D01*
X79567Y114554D01*
X79940Y114992D01*
X80358Y115384D01*
X80814Y115724D01*
X81056Y115874D01*
X81308Y116011D01*
X81570Y116135D01*
X81841Y116246D01*
X82122Y116345D01*
X82412Y116429D01*
X82712Y116501D01*
X83021Y116560D01*
X83340Y116606D01*
X83669Y116639D01*
X84007Y116658D01*
X84355Y116665D01*
X84837Y116653D01*
X85299Y116617D01*
X85742Y116556D01*
X86163Y116472D01*
X86565Y116364D01*
X86946Y116231D01*
X87307Y116075D01*
X87648Y115894D01*
X87968Y115690D01*
X88265Y115462D01*
X88541Y115211D01*
X88795Y114937D01*
X89027Y114640D01*
X89238Y114319D01*
X89426Y113975D01*
X89592Y113608D01*
X88007Y113082D01*
X87892Y113344D01*
X87760Y113589D01*
X87612Y113819D01*
X87448Y114033D01*
X87267Y114231D01*
X87070Y114413D01*
X86857Y114579D01*
X86627Y114729D01*
X86384Y114863D01*
X86130Y114978D01*
X85865Y115076D01*
X85589Y115156D01*
X85301Y115218D01*
X85003Y115263D01*
X84693Y115289D01*
X84372Y115298D01*
X83874Y115278D01*
X83404Y115216D01*
X82963Y115113D01*
X82550Y114969D01*
X82166Y114783D01*
X81810Y114557D01*
X81483Y114289D01*
X81184Y113980D01*
X80917Y113635D01*
X80686Y113260D01*
X80490Y112854D01*
X80330Y112418D01*
X80206Y111951D01*
X80117Y111454D01*
X80063Y110926D01*
X80045Y110367D01*
X80064Y109814D01*
X80120Y109289D01*
X80212Y108791D01*
X80342Y108321D01*
X80509Y107879D01*
X80713Y107465D01*
X80954Y107078D01*
X81232Y106719D01*
X81542Y106396D01*
X81878Y106116D01*
X82240Y105879D01*
X82628Y105685D01*
X83042Y105534D01*
X83483Y105426D01*
X83950Y105361D01*
X84442Y105340D01*
X84761Y105350D01*
X85070Y105380D01*
X85369Y105430D01*
X85658Y105500D01*
X85937Y105591D01*
X86206Y105701D01*
X86464Y105831D01*
X86713Y105981D01*
X86951Y106152D01*
X87180Y106342D01*
X87398Y106553D01*
X87607Y106783D01*
X87805Y107034D01*
X87993Y107305D01*
X88172Y107595D01*
X88340Y107906D01*
X89706Y107223D01*
X89506Y106836D01*
X89287Y106474D01*
X89048Y106135D01*
X88790Y105819D01*
X88512Y105528D01*
X88216Y105261D01*
X87900Y105017D01*
X87565Y104797D01*
X87213Y104602D01*
X86847Y104433D01*
X86468Y104290D01*
X86075Y104173D01*
X85668Y104082D01*
X85247Y104017D01*
X84812Y103978D01*
X84363Y103965D01*
G37*
G36*
X99473Y104140D02*
X91739Y104140D01*
X91739Y105480D01*
X94884Y105480D01*
X94884Y114974D01*
X92098Y112986D01*
X92098Y114475D01*
X95015Y116481D01*
X96469Y116481D01*
X96469Y105480D01*
X99473Y105480D01*
X99473Y104140D01*
G37*
G36*
X84363Y180165D02*
X83905Y180177D01*
X83462Y180213D01*
X83035Y180274D01*
X82624Y180359D01*
X82228Y180468D01*
X81848Y180601D01*
X81484Y180758D01*
X81136Y180940D01*
X80806Y181144D01*
X80495Y181369D01*
X80206Y181615D01*
X79936Y181882D01*
X79687Y182169D01*
X79458Y182477D01*
X79249Y182806D01*
X79060Y183156D01*
X78893Y183524D01*
X78748Y183909D01*
X78625Y184311D01*
X78525Y184729D01*
X78447Y185164D01*
X78391Y185615D01*
X78357Y186083D01*
X78346Y186567D01*
X78353Y186931D01*
X78371Y187285D01*
X78402Y187629D01*
X78446Y187963D01*
X78502Y188287D01*
X78570Y188601D01*
X78651Y188905D01*
X78745Y189199D01*
X78851Y189483D01*
X78969Y189757D01*
X79243Y190275D01*
X79567Y190754D01*
X79940Y191192D01*
X80358Y191584D01*
X80814Y191924D01*
X81056Y192074D01*
X81308Y192211D01*
X81570Y192335D01*
X81841Y192446D01*
X82122Y192545D01*
X82412Y192629D01*
X82712Y192701D01*
X83021Y192760D01*
X83340Y192806D01*
X83669Y192839D01*
X84007Y192858D01*
X84355Y192865D01*
X84837Y192853D01*
X85299Y192817D01*
X85742Y192756D01*
X86163Y192672D01*
X86565Y192564D01*
X86946Y192431D01*
X87307Y192275D01*
X87648Y192094D01*
X87968Y191890D01*
X88265Y191662D01*
X88541Y191411D01*
X88795Y191137D01*
X89027Y190840D01*
X89238Y190519D01*
X89426Y190175D01*
X89592Y189808D01*
X88007Y189282D01*
X87892Y189544D01*
X87760Y189789D01*
X87612Y190019D01*
X87448Y190233D01*
X87267Y190431D01*
X87070Y190613D01*
X86857Y190779D01*
X86627Y190929D01*
X86384Y191063D01*
X86130Y191178D01*
X85865Y191276D01*
X85589Y191356D01*
X85301Y191418D01*
X85003Y191463D01*
X84693Y191489D01*
X84372Y191498D01*
X83874Y191478D01*
X83404Y191416D01*
X82963Y191313D01*
X82550Y191169D01*
X82166Y190983D01*
X81810Y190757D01*
X81483Y190489D01*
X81184Y190180D01*
X80917Y189835D01*
X80686Y189460D01*
X80490Y189054D01*
X80330Y188618D01*
X80206Y188151D01*
X80117Y187654D01*
X80063Y187126D01*
X80045Y186567D01*
X80064Y186014D01*
X80120Y185489D01*
X80212Y184991D01*
X80342Y184521D01*
X80509Y184079D01*
X80713Y183665D01*
X80954Y183278D01*
X81232Y182919D01*
X81542Y182596D01*
X81878Y182316D01*
X82240Y182079D01*
X82628Y181885D01*
X83042Y181734D01*
X83483Y181626D01*
X83950Y181561D01*
X84442Y181540D01*
X84761Y181550D01*
X85070Y181580D01*
X85369Y181630D01*
X85658Y181700D01*
X85937Y181791D01*
X86206Y181901D01*
X86464Y182031D01*
X86713Y182181D01*
X86951Y182352D01*
X87180Y182542D01*
X87398Y182753D01*
X87607Y182983D01*
X87805Y183234D01*
X87993Y183505D01*
X88172Y183795D01*
X88340Y184106D01*
X89706Y183423D01*
X89506Y183036D01*
X89287Y182674D01*
X89048Y182335D01*
X88790Y182019D01*
X88512Y181728D01*
X88216Y181461D01*
X87900Y181217D01*
X87565Y180997D01*
X87213Y180802D01*
X86847Y180633D01*
X86468Y180490D01*
X86075Y180373D01*
X85668Y180282D01*
X85247Y180217D01*
X84812Y180178D01*
X84363Y180165D01*
G37*
G36*
X99447Y180340D02*
X91275Y180340D01*
X91275Y181452D01*
X91511Y181950D01*
X91771Y182417D01*
X92056Y182854D01*
X92365Y183261D01*
X92691Y183644D01*
X93026Y184008D01*
X93368Y184353D01*
X93719Y184680D01*
X94425Y185292D01*
X95124Y185858D01*
X95787Y186401D01*
X96381Y186944D01*
X96648Y187219D01*
X96888Y187500D01*
X97101Y187788D01*
X97288Y188083D01*
X97439Y188390D01*
X97547Y188718D01*
X97612Y189065D01*
X97634Y189431D01*
X97624Y189678D01*
X97597Y189911D01*
X97550Y190129D01*
X97485Y190333D01*
X97401Y190523D01*
X97299Y190699D01*
X97178Y190861D01*
X97038Y191008D01*
X96882Y191139D01*
X96711Y191253D01*
X96526Y191349D01*
X96327Y191428D01*
X96112Y191490D01*
X95884Y191533D01*
X95640Y191560D01*
X95383Y191568D01*
X95137Y191560D01*
X94901Y191534D01*
X94677Y191491D01*
X94464Y191432D01*
X94262Y191355D01*
X94071Y191261D01*
X93892Y191149D01*
X93723Y191021D01*
X93568Y190877D01*
X93430Y190720D01*
X93309Y190548D01*
X93205Y190363D01*
X93118Y190164D01*
X93047Y189951D01*
X92994Y189724D01*
X92957Y189484D01*
X91345Y189633D01*
X91403Y189993D01*
X91489Y190335D01*
X91604Y190658D01*
X91747Y190962D01*
X91918Y191247D01*
X92118Y191513D01*
X92346Y191760D01*
X92602Y191989D01*
X92882Y192194D01*
X93181Y192372D01*
X93500Y192523D01*
X93838Y192646D01*
X94195Y192742D01*
X94572Y192810D01*
X94968Y192851D01*
X95383Y192865D01*
X95836Y192851D01*
X96262Y192810D01*
X96661Y192741D01*
X97033Y192645D01*
X97378Y192521D01*
X97696Y192370D01*
X97987Y192191D01*
X98251Y191984D01*
X98486Y191753D01*
X98690Y191498D01*
X98862Y191220D01*
X99003Y190919D01*
X99113Y190595D01*
X99191Y190248D01*
X99238Y189877D01*
X99254Y189484D01*
X99234Y189125D01*
X99172Y188768D01*
X99069Y188412D01*
X98926Y188056D01*
X98741Y187702D01*
X98517Y187347D01*
X98253Y186992D01*
X97949Y186637D01*
X97551Y186234D01*
X97005Y185733D01*
X96312Y185135D01*
X95470Y184439D01*
X94992Y184037D01*
X94566Y183656D01*
X94191Y183295D01*
X93868Y182954D01*
X93591Y182627D01*
X93355Y182305D01*
X93161Y181990D01*
X93009Y181680D01*
X99447Y181680D01*
X99447Y180340D01*
G37*
G36*
X84363Y256365D02*
X83905Y256377D01*
X83462Y256413D01*
X83035Y256474D01*
X82624Y256559D01*
X82228Y256668D01*
X81848Y256801D01*
X81484Y256958D01*
X81136Y257140D01*
X80806Y257344D01*
X80495Y257569D01*
X80206Y257815D01*
X79936Y258082D01*
X79687Y258369D01*
X79458Y258677D01*
X79249Y259006D01*
X79060Y259356D01*
X78893Y259724D01*
X78748Y260109D01*
X78625Y260511D01*
X78525Y260929D01*
X78447Y261364D01*
X78391Y261815D01*
X78357Y262283D01*
X78346Y262767D01*
X78353Y263131D01*
X78371Y263485D01*
X78402Y263829D01*
X78446Y264163D01*
X78502Y264487D01*
X78570Y264801D01*
X78651Y265105D01*
X78745Y265399D01*
X78851Y265683D01*
X78969Y265957D01*
X79243Y266475D01*
X79567Y266954D01*
X79940Y267392D01*
X80358Y267784D01*
X80814Y268124D01*
X81056Y268274D01*
X81308Y268411D01*
X81570Y268535D01*
X81841Y268646D01*
X82122Y268745D01*
X82412Y268829D01*
X82712Y268901D01*
X83021Y268960D01*
X83340Y269006D01*
X83669Y269039D01*
X84007Y269058D01*
X84355Y269065D01*
X84837Y269053D01*
X85299Y269017D01*
X85742Y268956D01*
X86163Y268872D01*
X86565Y268764D01*
X86946Y268631D01*
X87307Y268475D01*
X87648Y268294D01*
X87968Y268090D01*
X88265Y267862D01*
X88541Y267611D01*
X88795Y267337D01*
X89027Y267040D01*
X89238Y266719D01*
X89426Y266375D01*
X89592Y266008D01*
X88007Y265482D01*
X87892Y265744D01*
X87760Y265989D01*
X87612Y266219D01*
X87448Y266433D01*
X87267Y266631D01*
X87070Y266813D01*
X86857Y266979D01*
X86627Y267129D01*
X86384Y267263D01*
X86130Y267378D01*
X85865Y267476D01*
X85589Y267556D01*
X85301Y267618D01*
X85003Y267663D01*
X84693Y267689D01*
X84372Y267698D01*
X83874Y267678D01*
X83404Y267616D01*
X82963Y267513D01*
X82550Y267369D01*
X82166Y267183D01*
X81810Y266957D01*
X81483Y266689D01*
X81184Y266380D01*
X80917Y266035D01*
X80686Y265660D01*
X80490Y265254D01*
X80330Y264818D01*
X80206Y264351D01*
X80117Y263854D01*
X80063Y263326D01*
X80045Y262767D01*
X80064Y262214D01*
X80120Y261689D01*
X80212Y261191D01*
X80342Y260721D01*
X80509Y260279D01*
X80713Y259865D01*
X80954Y259478D01*
X81232Y259119D01*
X81542Y258796D01*
X81878Y258516D01*
X82240Y258279D01*
X82628Y258085D01*
X83042Y257934D01*
X83483Y257826D01*
X83950Y257761D01*
X84442Y257740D01*
X84761Y257750D01*
X85070Y257780D01*
X85369Y257830D01*
X85658Y257900D01*
X85937Y257991D01*
X86206Y258101D01*
X86464Y258231D01*
X86713Y258381D01*
X86951Y258552D01*
X87180Y258742D01*
X87398Y258953D01*
X87607Y259183D01*
X87805Y259434D01*
X87993Y259705D01*
X88172Y259995D01*
X88340Y260306D01*
X89706Y259623D01*
X89506Y259236D01*
X89287Y258874D01*
X89048Y258535D01*
X88790Y258219D01*
X88512Y257928D01*
X88216Y257661D01*
X87900Y257417D01*
X87565Y257197D01*
X87213Y257002D01*
X86847Y256833D01*
X86468Y256690D01*
X86075Y256573D01*
X85668Y256482D01*
X85247Y256417D01*
X84812Y256378D01*
X84363Y256365D01*
G37*
G36*
X95374Y256365D02*
X94917Y256378D01*
X94484Y256418D01*
X94075Y256484D01*
X93689Y256576D01*
X93327Y256695D01*
X92989Y256840D01*
X92674Y257012D01*
X92383Y257210D01*
X92118Y257434D01*
X91881Y257683D01*
X91673Y257958D01*
X91493Y258258D01*
X91341Y258583D01*
X91218Y258934D01*
X91123Y259309D01*
X91056Y259711D01*
X92685Y259859D01*
X92733Y259594D01*
X92796Y259346D01*
X92876Y259115D01*
X92971Y258902D01*
X93083Y258705D01*
X93211Y258525D01*
X93355Y258363D01*
X93515Y258217D01*
X93691Y258089D01*
X93883Y257978D01*
X94092Y257884D01*
X94316Y257807D01*
X94556Y257747D01*
X94813Y257704D01*
X95085Y257678D01*
X95374Y257670D01*
X95664Y257679D01*
X95938Y257707D01*
X96195Y257752D01*
X96437Y257817D01*
X96663Y257899D01*
X96873Y258000D01*
X97066Y258119D01*
X97244Y258257D01*
X97403Y258412D01*
X97541Y258586D01*
X97658Y258777D01*
X97753Y258986D01*
X97827Y259213D01*
X97880Y259457D01*
X97912Y259719D01*
X97923Y260000D01*
X97911Y260245D01*
X97874Y260476D01*
X97814Y260693D01*
X97729Y260896D01*
X97620Y261086D01*
X97487Y261262D01*
X97329Y261424D01*
X97148Y261572D01*
X96943Y261704D01*
X96717Y261819D01*
X96470Y261916D01*
X96201Y261995D01*
X95910Y262057D01*
X95598Y262101D01*
X95265Y262128D01*
X94910Y262137D01*
X94016Y262137D01*
X94016Y263503D01*
X94875Y263503D01*
X95190Y263512D01*
X95487Y263538D01*
X95765Y263582D01*
X96025Y263644D01*
X96268Y263724D01*
X96492Y263821D01*
X96697Y263936D01*
X96885Y264068D01*
X97052Y264216D01*
X97197Y264378D01*
X97320Y264553D01*
X97420Y264741D01*
X97498Y264943D01*
X97554Y265159D01*
X97588Y265389D01*
X97599Y265631D01*
X97590Y265872D01*
X97562Y266100D01*
X97517Y266315D01*
X97453Y266517D01*
X97371Y266706D01*
X97271Y266882D01*
X97153Y267045D01*
X97016Y267195D01*
X96862Y267329D01*
X96690Y267446D01*
X96500Y267544D01*
X96293Y267625D01*
X96068Y267688D01*
X95825Y267733D01*
X95564Y267759D01*
X95286Y267768D01*
X95032Y267760D01*
X94790Y267735D01*
X94561Y267693D01*
X94344Y267635D01*
X94139Y267560D01*
X93947Y267468D01*
X93768Y267359D01*
X93600Y267234D01*
X93448Y267094D01*
X93312Y266940D01*
X93193Y266772D01*
X93091Y266590D01*
X93006Y266395D01*
X92938Y266186D01*
X92886Y265964D01*
X92852Y265728D01*
X91266Y265850D01*
X91324Y266219D01*
X91411Y266566D01*
X91525Y266893D01*
X91668Y267199D01*
X91839Y267484D01*
X92039Y267749D01*
X92267Y267992D01*
X92523Y268215D01*
X92803Y268414D01*
X93103Y268587D01*
X93421Y268733D01*
X93759Y268852D01*
X94116Y268945D01*
X94493Y269012D01*
X94889Y269051D01*
X95304Y269065D01*
X95755Y269051D01*
X96181Y269011D01*
X96580Y268943D01*
X96954Y268849D01*
X97302Y268728D01*
X97624Y268579D01*
X97920Y268404D01*
X98190Y268202D01*
X98431Y267976D01*
X98640Y267728D01*
X98817Y267460D01*
X98962Y267170D01*
X99074Y266858D01*
X99155Y266526D01*
X99203Y266173D01*
X99219Y265798D01*
X99209Y265509D01*
X99178Y265234D01*
X99126Y264973D01*
X99054Y264726D01*
X98961Y264493D01*
X98847Y264273D01*
X98713Y264067D01*
X98558Y263875D01*
X98383Y263698D01*
X98190Y263535D01*
X97977Y263387D01*
X97747Y263255D01*
X97497Y263137D01*
X97228Y263034D01*
X96941Y262946D01*
X96635Y262872D01*
X96635Y262837D01*
X96972Y262790D01*
X97289Y262724D01*
X97587Y262637D01*
X97866Y262531D01*
X98126Y262405D01*
X98366Y262259D01*
X98588Y262094D01*
X98790Y261909D01*
X98971Y261708D01*
X99127Y261494D01*
X99260Y261268D01*
X99368Y261029D01*
X99452Y260777D01*
X99512Y260513D01*
X99549Y260236D01*
X99561Y259947D01*
X99544Y259532D01*
X99493Y259141D01*
X99408Y258775D01*
X99289Y258432D01*
X99136Y258113D01*
X98950Y257819D01*
X98729Y257548D01*
X98475Y257302D01*
X98189Y257082D01*
X97874Y256892D01*
X97529Y256731D01*
X97156Y256599D01*
X96754Y256497D01*
X96323Y256423D01*
X95863Y256380D01*
X95374Y256365D01*
G37*
G36*
X226540Y435620D02*
X226082Y435632D01*
X225639Y435668D01*
X225212Y435729D01*
X224801Y435814D01*
X224405Y435923D01*
X224025Y436056D01*
X223661Y436213D01*
X223313Y436395D01*
X222983Y436599D01*
X222672Y436824D01*
X222383Y437070D01*
X222113Y437337D01*
X221864Y437624D01*
X221635Y437932D01*
X221426Y438261D01*
X221237Y438611D01*
X221070Y438979D01*
X220925Y439364D01*
X220802Y439766D01*
X220702Y440184D01*
X220624Y440619D01*
X220568Y441070D01*
X220535Y441538D01*
X220523Y442022D01*
X220530Y442386D01*
X220548Y442740D01*
X220579Y443084D01*
X220623Y443418D01*
X220679Y443742D01*
X220748Y444056D01*
X220828Y444360D01*
X220922Y444654D01*
X221028Y444938D01*
X221146Y445212D01*
X221420Y445730D01*
X221744Y446209D01*
X222117Y446647D01*
X222535Y447039D01*
X222991Y447379D01*
X223233Y447529D01*
X223485Y447666D01*
X223747Y447790D01*
X224018Y447901D01*
X224299Y448000D01*
X224589Y448084D01*
X224889Y448156D01*
X225198Y448215D01*
X225517Y448261D01*
X225846Y448294D01*
X226184Y448313D01*
X226532Y448320D01*
X227014Y448308D01*
X227477Y448272D01*
X227919Y448211D01*
X228340Y448127D01*
X228742Y448019D01*
X229123Y447886D01*
X229484Y447730D01*
X229825Y447549D01*
X230145Y447345D01*
X230442Y447117D01*
X230718Y446866D01*
X230972Y446592D01*
X231204Y446295D01*
X231415Y445974D01*
X231603Y445630D01*
X231769Y445263D01*
X230184Y444737D01*
X230069Y444999D01*
X229937Y445244D01*
X229789Y445474D01*
X229625Y445688D01*
X229444Y445886D01*
X229247Y446068D01*
X229034Y446234D01*
X228805Y446384D01*
X228561Y446518D01*
X228307Y446633D01*
X228042Y446731D01*
X227766Y446811D01*
X227478Y446873D01*
X227180Y446918D01*
X226870Y446944D01*
X226549Y446953D01*
X226051Y446933D01*
X225581Y446871D01*
X225140Y446768D01*
X224727Y446624D01*
X224343Y446438D01*
X223987Y446212D01*
X223660Y445944D01*
X223361Y445635D01*
X223094Y445290D01*
X222863Y444915D01*
X222667Y444509D01*
X222507Y444073D01*
X222383Y443606D01*
X222294Y443109D01*
X222240Y442581D01*
X222223Y442022D01*
X222241Y441469D01*
X222297Y440944D01*
X222389Y440446D01*
X222519Y439976D01*
X222686Y439534D01*
X222890Y439120D01*
X223131Y438733D01*
X223409Y438374D01*
X223719Y438051D01*
X224055Y437771D01*
X224417Y437534D01*
X224805Y437340D01*
X225220Y437189D01*
X225660Y437081D01*
X226127Y437016D01*
X226619Y436995D01*
X226938Y437005D01*
X227247Y437035D01*
X227546Y437085D01*
X227835Y437155D01*
X228114Y437246D01*
X228383Y437356D01*
X228641Y437486D01*
X228890Y437636D01*
X229129Y437807D01*
X229357Y437997D01*
X229575Y438208D01*
X229784Y438438D01*
X229982Y438689D01*
X230170Y438960D01*
X230349Y439250D01*
X230517Y439561D01*
X231883Y438878D01*
X231683Y438491D01*
X231464Y438129D01*
X231225Y437790D01*
X230967Y437474D01*
X230689Y437183D01*
X230393Y436916D01*
X230077Y436672D01*
X229742Y436452D01*
X229390Y436257D01*
X229024Y436088D01*
X228645Y435945D01*
X228252Y435828D01*
X227845Y435737D01*
X227424Y435672D01*
X226989Y435633D01*
X226540Y435620D01*
G37*
G36*
X241650Y435795D02*
X233916Y435795D01*
X233916Y437135D01*
X237061Y437135D01*
X237061Y446629D01*
X234275Y444641D01*
X234275Y446130D01*
X237192Y448136D01*
X238646Y448136D01*
X238646Y437135D01*
X241650Y437135D01*
X241650Y435795D01*
G37*
G36*
X217972Y435795D02*
X216299Y435795D01*
X216299Y448136D01*
X217972Y448136D01*
X217972Y435795D01*
G37*
G36*
X188440Y666575D02*
X187982Y666587D01*
X187539Y666623D01*
X187112Y666684D01*
X186701Y666769D01*
X186305Y666878D01*
X185925Y667011D01*
X185561Y667168D01*
X185213Y667350D01*
X184883Y667554D01*
X184572Y667779D01*
X184283Y668025D01*
X184013Y668292D01*
X183764Y668579D01*
X183535Y668887D01*
X183326Y669216D01*
X183137Y669566D01*
X182970Y669934D01*
X182825Y670319D01*
X182702Y670721D01*
X182602Y671139D01*
X182524Y671574D01*
X182468Y672025D01*
X182435Y672493D01*
X182423Y672977D01*
X182430Y673341D01*
X182448Y673695D01*
X182479Y674039D01*
X182523Y674373D01*
X182579Y674697D01*
X182648Y675011D01*
X182728Y675315D01*
X182822Y675609D01*
X182928Y675893D01*
X183046Y676167D01*
X183320Y676685D01*
X183644Y677164D01*
X184017Y677602D01*
X184435Y677994D01*
X184891Y678334D01*
X185133Y678484D01*
X185385Y678621D01*
X185647Y678745D01*
X185918Y678856D01*
X186199Y678955D01*
X186489Y679039D01*
X186789Y679111D01*
X187098Y679170D01*
X187417Y679216D01*
X187746Y679249D01*
X188084Y679268D01*
X188432Y679275D01*
X188914Y679263D01*
X189377Y679227D01*
X189819Y679166D01*
X190240Y679082D01*
X190642Y678974D01*
X191023Y678841D01*
X191384Y678685D01*
X191725Y678504D01*
X192045Y678300D01*
X192342Y678072D01*
X192618Y677821D01*
X192872Y677547D01*
X193104Y677250D01*
X193315Y676929D01*
X193503Y676585D01*
X193669Y676218D01*
X192084Y675692D01*
X191969Y675954D01*
X191837Y676199D01*
X191689Y676429D01*
X191525Y676643D01*
X191344Y676841D01*
X191147Y677023D01*
X190934Y677189D01*
X190705Y677339D01*
X190461Y677473D01*
X190207Y677588D01*
X189942Y677686D01*
X189666Y677766D01*
X189378Y677828D01*
X189080Y677873D01*
X188770Y677899D01*
X188449Y677908D01*
X187951Y677888D01*
X187481Y677826D01*
X187040Y677723D01*
X186627Y677579D01*
X186243Y677393D01*
X185887Y677167D01*
X185560Y676899D01*
X185261Y676590D01*
X184994Y676245D01*
X184763Y675870D01*
X184567Y675464D01*
X184407Y675028D01*
X184283Y674561D01*
X184194Y674064D01*
X184140Y673536D01*
X184123Y672977D01*
X184141Y672424D01*
X184197Y671899D01*
X184289Y671401D01*
X184419Y670931D01*
X184586Y670489D01*
X184790Y670075D01*
X185031Y669688D01*
X185309Y669329D01*
X185619Y669006D01*
X185955Y668726D01*
X186317Y668489D01*
X186705Y668295D01*
X187120Y668144D01*
X187560Y668036D01*
X188027Y667971D01*
X188519Y667950D01*
X188838Y667960D01*
X189147Y667990D01*
X189446Y668040D01*
X189735Y668110D01*
X190014Y668201D01*
X190283Y668311D01*
X190541Y668441D01*
X190790Y668591D01*
X191029Y668762D01*
X191257Y668952D01*
X191475Y669163D01*
X191684Y669393D01*
X191882Y669644D01*
X192070Y669915D01*
X192249Y670205D01*
X192417Y670516D01*
X193783Y669833D01*
X193583Y669446D01*
X193364Y669084D01*
X193125Y668745D01*
X192867Y668429D01*
X192589Y668138D01*
X192293Y667871D01*
X191977Y667627D01*
X191642Y667407D01*
X191290Y667212D01*
X190924Y667043D01*
X190545Y666900D01*
X190152Y666783D01*
X189745Y666692D01*
X189324Y666627D01*
X188889Y666588D01*
X188440Y666575D01*
G37*
G36*
X203524Y666750D02*
X195352Y666750D01*
X195352Y667862D01*
X195588Y668360D01*
X195848Y668827D01*
X196133Y669264D01*
X196443Y669671D01*
X196769Y670054D01*
X197103Y670418D01*
X197445Y670763D01*
X197796Y671090D01*
X198502Y671702D01*
X199201Y672268D01*
X199864Y672811D01*
X200458Y673354D01*
X200725Y673629D01*
X200965Y673910D01*
X201178Y674198D01*
X201365Y674493D01*
X201516Y674800D01*
X201624Y675128D01*
X201689Y675475D01*
X201711Y675841D01*
X201701Y676088D01*
X201674Y676321D01*
X201627Y676539D01*
X201562Y676743D01*
X201478Y676933D01*
X201376Y677109D01*
X201255Y677271D01*
X201115Y677418D01*
X200959Y677549D01*
X200788Y677663D01*
X200603Y677759D01*
X200404Y677838D01*
X200189Y677900D01*
X199961Y677943D01*
X199718Y677970D01*
X199460Y677978D01*
X199214Y677970D01*
X198978Y677944D01*
X198754Y677901D01*
X198541Y677842D01*
X198339Y677765D01*
X198149Y677671D01*
X197969Y677559D01*
X197800Y677431D01*
X197645Y677287D01*
X197508Y677130D01*
X197386Y676958D01*
X197282Y676773D01*
X197195Y676574D01*
X197124Y676361D01*
X197071Y676134D01*
X197034Y675894D01*
X195422Y676043D01*
X195480Y676403D01*
X195566Y676745D01*
X195681Y677068D01*
X195824Y677372D01*
X195995Y677657D01*
X196195Y677923D01*
X196423Y678170D01*
X196679Y678399D01*
X196959Y678604D01*
X197258Y678782D01*
X197577Y678933D01*
X197915Y679056D01*
X198272Y679152D01*
X198649Y679220D01*
X199045Y679261D01*
X199460Y679275D01*
X199913Y679261D01*
X200339Y679220D01*
X200738Y679151D01*
X201110Y679055D01*
X201455Y678931D01*
X201773Y678780D01*
X202064Y678601D01*
X202328Y678394D01*
X202563Y678163D01*
X202767Y677908D01*
X202939Y677630D01*
X203080Y677329D01*
X203190Y677005D01*
X203268Y676658D01*
X203315Y676287D01*
X203331Y675894D01*
X203311Y675535D01*
X203249Y675178D01*
X203146Y674822D01*
X203003Y674466D01*
X202818Y674112D01*
X202594Y673757D01*
X202330Y673402D01*
X202026Y673047D01*
X201628Y672644D01*
X201082Y672143D01*
X200389Y671545D01*
X199547Y670849D01*
X199070Y670447D01*
X198643Y670066D01*
X198268Y669705D01*
X197945Y669364D01*
X197668Y669037D01*
X197432Y668715D01*
X197238Y668400D01*
X197086Y668090D01*
X203524Y668090D01*
X203524Y666750D01*
G37*
G36*
X179872Y666750D02*
X178199Y666750D01*
X178199Y679091D01*
X179872Y679091D01*
X179872Y666750D01*
G37*
G36*
X139109Y918360D02*
X137638Y918360D01*
X137638Y922294D01*
X138939Y922294D01*
X139182Y922287D01*
X139410Y922263D01*
X139625Y922224D01*
X139825Y922169D01*
X140010Y922099D01*
X140182Y922012D01*
X140339Y921911D01*
X140482Y921793D01*
X140609Y921661D01*
X140719Y921516D01*
X140813Y921358D01*
X140889Y921186D01*
X140949Y921001D01*
X140991Y920803D01*
X141017Y920592D01*
X141025Y920368D01*
X141010Y920073D01*
X140966Y919797D01*
X140891Y919540D01*
X140788Y919302D01*
X140657Y919087D01*
X140501Y918899D01*
X140320Y918738D01*
X140115Y918603D01*
X139889Y918497D01*
X139646Y918421D01*
X139386Y918375D01*
X139109Y918360D01*
G37*
%LPC*%
G36*
X139048Y918787D02*
X139258Y918799D01*
X139455Y918835D01*
X139638Y918894D01*
X139809Y918977D01*
X139963Y919083D01*
X140099Y919209D01*
X140215Y919356D01*
X140313Y919524D01*
X140390Y919711D01*
X140445Y919914D01*
X140478Y920133D01*
X140489Y920368D01*
X140483Y920545D01*
X140464Y920712D01*
X140433Y920868D01*
X140389Y921012D01*
X140332Y921146D01*
X140263Y921270D01*
X140182Y921382D01*
X140088Y921483D01*
X139865Y921651D01*
X139737Y921717D01*
X139598Y921771D01*
X139447Y921813D01*
X139285Y921843D01*
X139112Y921861D01*
X138928Y921867D01*
X138171Y921867D01*
X138171Y918787D01*
X139048Y918787D01*
G37*
%LPD*%
G36*
X136925Y918360D02*
X133825Y918360D01*
X133825Y922294D01*
X136810Y922294D01*
X136810Y921859D01*
X134359Y921859D01*
X134359Y920597D01*
X136643Y920597D01*
X136643Y920167D01*
X134359Y920167D01*
X134359Y918796D01*
X136925Y918796D01*
X136925Y918360D01*
G37*
G36*
X144195Y918360D02*
X141729Y918360D01*
X141729Y918787D01*
X142732Y918787D01*
X142732Y921814D01*
X141844Y921180D01*
X141844Y921655D01*
X142774Y922294D01*
X143237Y922294D01*
X143237Y918787D01*
X144195Y918787D01*
X144195Y918360D01*
G37*
G36*
X133191Y918360D02*
X130669Y918360D01*
X130669Y922294D01*
X131202Y922294D01*
X131202Y918796D01*
X133191Y918796D01*
X133191Y918360D01*
G37*
G36*
X515774Y425275D02*
X515225Y425287D01*
X514705Y425324D01*
X514216Y425385D01*
X513755Y425471D01*
X513325Y425581D01*
X512924Y425716D01*
X512553Y425875D01*
X512211Y426059D01*
X511899Y426267D01*
X511617Y426500D01*
X511364Y426757D01*
X511141Y427039D01*
X510947Y427345D01*
X510784Y427675D01*
X510649Y428031D01*
X510545Y428410D01*
X512165Y428734D01*
X512245Y428466D01*
X512345Y428215D01*
X512464Y427983D01*
X512603Y427770D01*
X512762Y427575D01*
X512940Y427399D01*
X513138Y427241D01*
X513356Y427101D01*
X513594Y426979D01*
X513853Y426873D01*
X514132Y426783D01*
X514431Y426710D01*
X514752Y426653D01*
X515092Y426612D01*
X515453Y426588D01*
X515835Y426580D01*
X516229Y426589D01*
X516599Y426615D01*
X516946Y426658D01*
X517270Y426719D01*
X517571Y426797D01*
X517849Y426893D01*
X518104Y427006D01*
X518336Y427136D01*
X518542Y427283D01*
X518721Y427447D01*
X518872Y427626D01*
X518996Y427822D01*
X519092Y428035D01*
X519161Y428263D01*
X519202Y428508D01*
X519216Y428769D01*
X519199Y429057D01*
X519147Y429317D01*
X519061Y429548D01*
X518940Y429750D01*
X518788Y429931D01*
X518608Y430094D01*
X518400Y430241D01*
X518165Y430372D01*
X517903Y430490D01*
X517617Y430598D01*
X517308Y430696D01*
X516974Y430784D01*
X515441Y431143D01*
X514754Y431305D01*
X514154Y431467D01*
X513643Y431629D01*
X513221Y431791D01*
X512862Y431958D01*
X512543Y432134D01*
X512264Y432319D01*
X512025Y432514D01*
X511819Y432722D01*
X511639Y432946D01*
X511484Y433188D01*
X511355Y433447D01*
X511253Y433724D01*
X511181Y434020D01*
X511137Y434337D01*
X511123Y434673D01*
X511142Y435058D01*
X511199Y435420D01*
X511293Y435759D01*
X511426Y436076D01*
X511597Y436370D01*
X511805Y436642D01*
X512052Y436890D01*
X512336Y437116D01*
X512656Y437318D01*
X513008Y437492D01*
X513393Y437639D01*
X513811Y437760D01*
X514261Y437854D01*
X514744Y437921D01*
X515260Y437961D01*
X515809Y437975D01*
X516319Y437965D01*
X516798Y437934D01*
X517246Y437884D01*
X517663Y437814D01*
X518050Y437723D01*
X518405Y437613D01*
X518730Y437482D01*
X519023Y437331D01*
X519291Y437156D01*
X519538Y436952D01*
X519764Y436721D01*
X519969Y436461D01*
X520153Y436172D01*
X520317Y435855D01*
X520460Y435510D01*
X520582Y435137D01*
X518936Y434848D01*
X518860Y435085D01*
X518769Y435305D01*
X518663Y435508D01*
X518541Y435694D01*
X518405Y435864D01*
X518252Y436016D01*
X518085Y436152D01*
X517902Y436271D01*
X517702Y436375D01*
X517484Y436465D01*
X517248Y436541D01*
X516993Y436603D01*
X516720Y436651D01*
X516429Y436686D01*
X516119Y436707D01*
X515791Y436713D01*
X515432Y436706D01*
X515095Y436683D01*
X514780Y436645D01*
X514486Y436591D01*
X514215Y436522D01*
X513965Y436438D01*
X513737Y436338D01*
X513531Y436223D01*
X513349Y436093D01*
X513190Y435948D01*
X513056Y435787D01*
X512947Y435612D01*
X512862Y435422D01*
X512801Y435216D01*
X512764Y434996D01*
X512752Y434760D01*
X512771Y434488D01*
X512828Y434240D01*
X512922Y434017D01*
X513054Y433819D01*
X513222Y433640D01*
X513423Y433475D01*
X513658Y433324D01*
X513926Y433188D01*
X514281Y433052D01*
X514777Y432900D01*
X515415Y432734D01*
X516194Y432553D01*
X517328Y432286D01*
X517881Y432137D01*
X518410Y431962D01*
X518910Y431757D01*
X519378Y431520D01*
X519596Y431386D01*
X519799Y431237D01*
X519988Y431075D01*
X520162Y430898D01*
X520319Y430706D01*
X520458Y430497D01*
X520580Y430272D01*
X520683Y430031D01*
X520765Y429770D01*
X520824Y429488D01*
X520859Y429183D01*
X520871Y428857D01*
X520850Y428442D01*
X520788Y428051D01*
X520683Y427685D01*
X520537Y427342D01*
X520349Y427023D01*
X520120Y426729D01*
X519849Y426458D01*
X519535Y426212D01*
X519185Y425992D01*
X518799Y425802D01*
X518380Y425641D01*
X517927Y425509D01*
X517440Y425407D01*
X516919Y425333D01*
X516363Y425290D01*
X515774Y425275D01*
G37*
G36*
X530768Y425450D02*
X523034Y425450D01*
X523034Y426790D01*
X526178Y426790D01*
X526178Y436284D01*
X523393Y434296D01*
X523393Y435785D01*
X526310Y437791D01*
X527764Y437791D01*
X527764Y426790D01*
X530768Y426790D01*
X530768Y425450D01*
G37*
G36*
X394960Y346256D02*
X393874Y346256D01*
X393874Y347675D01*
X393420Y347706D01*
X392990Y347759D01*
X392585Y347834D01*
X392204Y347931D01*
X391847Y348050D01*
X391515Y348191D01*
X391206Y348355D01*
X390923Y348540D01*
X390663Y348748D01*
X390428Y348977D01*
X390218Y349229D01*
X390032Y349503D01*
X389870Y349799D01*
X389732Y350117D01*
X389619Y350457D01*
X389530Y350819D01*
X391019Y351144D01*
X391081Y350891D01*
X391158Y350655D01*
X391250Y350435D01*
X391357Y350230D01*
X391479Y350043D01*
X391616Y349871D01*
X391768Y349715D01*
X391934Y349576D01*
X392117Y349451D01*
X392317Y349341D01*
X392534Y349244D01*
X392768Y349162D01*
X393019Y349093D01*
X393287Y349039D01*
X393539Y349003D01*
X393572Y348998D01*
X393874Y348971D01*
X393874Y353316D01*
X393159Y353503D01*
X392564Y353681D01*
X392335Y353762D01*
X392089Y353849D01*
X391733Y354008D01*
X391452Y354167D01*
X391199Y354337D01*
X390974Y354519D01*
X390778Y354713D01*
X390609Y354915D01*
X390465Y355125D01*
X390346Y355342D01*
X390253Y355567D01*
X390182Y355806D01*
X390131Y356068D01*
X390101Y356353D01*
X390091Y356661D01*
X390106Y356992D01*
X390152Y357303D01*
X390229Y357596D01*
X390337Y357871D01*
X390476Y358127D01*
X390645Y358365D01*
X390845Y358585D01*
X391076Y358785D01*
X391335Y358966D01*
X391620Y359126D01*
X391931Y359263D01*
X392268Y359380D01*
X392631Y359475D01*
X393020Y359548D01*
X393434Y359600D01*
X393874Y359631D01*
X393874Y360778D01*
X394960Y360778D01*
X394960Y359631D01*
X395358Y359602D01*
X395733Y359555D01*
X396084Y359490D01*
X396412Y359406D01*
X396717Y359305D01*
X396998Y359185D01*
X397257Y359047D01*
X397492Y358890D01*
X397707Y358714D01*
X397906Y358514D01*
X398088Y358290D01*
X398254Y358044D01*
X398403Y357775D01*
X398536Y357482D01*
X398653Y357167D01*
X398753Y356828D01*
X397229Y356539D01*
X397119Y356928D01*
X396964Y357271D01*
X396764Y357569D01*
X396520Y357822D01*
X396378Y357931D01*
X396222Y358029D01*
X396050Y358116D01*
X395863Y358191D01*
X395660Y358255D01*
X395442Y358307D01*
X395209Y358348D01*
X394960Y358378D01*
X394960Y354481D01*
X395688Y354300D01*
X396302Y354128D01*
X396802Y353963D01*
X397190Y353806D01*
X397503Y353648D01*
X397782Y353480D01*
X398026Y353302D01*
X398236Y353114D01*
X398417Y352913D01*
X398576Y352694D01*
X398711Y352457D01*
X398823Y352203D01*
X398911Y351929D01*
X398974Y351632D01*
X399012Y351312D01*
X399024Y350968D01*
X399008Y350616D01*
X398958Y350281D01*
X398875Y349965D01*
X398760Y349666D01*
X398610Y349384D01*
X398428Y349121D01*
X398213Y348875D01*
X397965Y348647D01*
X397686Y348441D01*
X397379Y348258D01*
X397045Y348100D01*
X396684Y347966D01*
X396294Y347857D01*
X395877Y347772D01*
X395433Y347711D01*
X394960Y347675D01*
X394960Y346256D01*
G37*
%LPC*%
G36*
X394960Y348963D02*
X395260Y348989D01*
X395350Y349002D01*
X395542Y349029D01*
X395806Y349082D01*
X396052Y349149D01*
X396280Y349229D01*
X396490Y349322D01*
X396682Y349429D01*
X396857Y349549D01*
X397012Y349683D01*
X397146Y349828D01*
X397260Y349985D01*
X397353Y350154D01*
X397425Y350335D01*
X397477Y350528D01*
X397508Y350734D01*
X397518Y350951D01*
X397504Y351223D01*
X397461Y351470D01*
X397390Y351692D01*
X397290Y351888D01*
X397164Y352064D01*
X397012Y352224D01*
X396835Y352368D01*
X396633Y352497D01*
X396368Y352622D01*
X396001Y352758D01*
X395531Y352905D01*
X394960Y353062D01*
X394960Y348963D01*
G37*
G36*
X393874Y354708D02*
X393874Y358396D01*
X393599Y358375D01*
X393341Y358342D01*
X393101Y358298D01*
X392878Y358242D01*
X392674Y358175D01*
X392487Y358097D01*
X392318Y358007D01*
X392167Y357905D01*
X392033Y357792D01*
X391917Y357668D01*
X391820Y357532D01*
X391740Y357384D01*
X391677Y357225D01*
X391633Y357054D01*
X391606Y356872D01*
X391597Y356679D01*
X391611Y356430D01*
X391652Y356202D01*
X391720Y355993D01*
X391816Y355803D01*
X391820Y355798D01*
X391939Y355631D01*
X392089Y355472D01*
X392265Y355328D01*
X392469Y355199D01*
X392719Y355076D01*
X393037Y354954D01*
X393422Y354831D01*
X393874Y354708D01*
G37*
%LPD*%
G36*
X382802Y347325D02*
X382430Y347333D01*
X382069Y347359D01*
X381720Y347402D01*
X381384Y347463D01*
X381059Y347540D01*
X380746Y347635D01*
X380446Y347747D01*
X380157Y347877D01*
X379883Y348022D01*
X379624Y348184D01*
X379381Y348361D01*
X379155Y348553D01*
X378944Y348761D01*
X378748Y348985D01*
X378569Y349224D01*
X378406Y349479D01*
X378260Y349748D01*
X378134Y350030D01*
X378027Y350324D01*
X377939Y350631D01*
X377871Y350951D01*
X377823Y351283D01*
X377794Y351627D01*
X377784Y351984D01*
X377784Y359841D01*
X379457Y359841D01*
X379457Y352125D01*
X379470Y351715D01*
X379510Y351330D01*
X379577Y350971D01*
X379671Y350638D01*
X379792Y350330D01*
X379940Y350047D01*
X380114Y349790D01*
X380315Y349558D01*
X380542Y349353D01*
X380792Y349175D01*
X381066Y349025D01*
X381364Y348901D01*
X381686Y348806D01*
X382031Y348737D01*
X382401Y348696D01*
X382794Y348682D01*
X383198Y348697D01*
X383580Y348739D01*
X383938Y348810D01*
X384273Y348909D01*
X384585Y349037D01*
X384874Y349192D01*
X385139Y349376D01*
X385382Y349589D01*
X385598Y349829D01*
X385786Y350094D01*
X385945Y350386D01*
X386075Y350705D01*
X386176Y351049D01*
X386248Y351419D01*
X386291Y351816D01*
X386306Y352238D01*
X386306Y359841D01*
X387970Y359841D01*
X387970Y352142D01*
X387960Y351774D01*
X387930Y351419D01*
X387881Y351077D01*
X387811Y350747D01*
X387722Y350431D01*
X387613Y350127D01*
X387484Y349836D01*
X387335Y349558D01*
X387168Y349295D01*
X386985Y349047D01*
X386785Y348816D01*
X386569Y348600D01*
X386336Y348401D01*
X386087Y348217D01*
X385821Y348050D01*
X385540Y347899D01*
X385243Y347764D01*
X384933Y347648D01*
X384611Y347549D01*
X384275Y347468D01*
X383926Y347406D01*
X383565Y347361D01*
X383190Y347334D01*
X382802Y347325D01*
G37*
G36*
X408406Y347500D02*
X400673Y347500D01*
X400673Y348840D01*
X403817Y348840D01*
X403817Y358334D01*
X401032Y356346D01*
X401032Y357835D01*
X403948Y359841D01*
X405402Y359841D01*
X405402Y348840D01*
X408406Y348840D01*
X408406Y347500D01*
G37*
D10*
X63500Y101600D02*
X114300Y101600D01*
X114609Y101596D01*
X114918Y101585D01*
X115227Y101566D01*
X115535Y101540D01*
X115843Y101506D01*
X116149Y101465D01*
X116455Y101416D01*
X116759Y101360D01*
X117061Y101296D01*
X117362Y101225D01*
X117662Y101147D01*
X117959Y101062D01*
X118254Y100969D01*
X118547Y100869D01*
X118837Y100762D01*
X119124Y100648D01*
X119409Y100527D01*
X119691Y100399D01*
X119969Y100265D01*
X120244Y100123D01*
X120516Y99975D01*
X120783Y99820D01*
X121047Y99659D01*
X121307Y99492D01*
X121563Y99318D01*
X121815Y99138D01*
X122062Y98952D01*
X122304Y98760D01*
X122542Y98562D01*
X122775Y98359D01*
X123003Y98149D01*
X123225Y97935D01*
X123443Y97715D01*
X123655Y97489D01*
X123861Y97259D01*
X124062Y97024D01*
X124257Y96784D01*
X124446Y96539D01*
X124629Y96290D01*
X124806Y96036D01*
X124976Y95778D01*
X125141Y95516D01*
X125299Y95250D01*
X125450Y94980D01*
X125595Y94707D01*
X125733Y94430D01*
X125864Y94150D01*
X125988Y93867D01*
X126106Y93581D01*
X126216Y93292D01*
X126320Y93001D01*
X126416Y92707D01*
X126505Y92411D01*
X126587Y92112D01*
X126662Y91812D01*
X126729Y91510D01*
X126789Y91207D01*
X126841Y90902D01*
X126886Y90596D01*
X126924Y90289D01*
X126954Y89981D01*
X126976Y89673D01*
X126992Y89364D01*
X126999Y89055D01*
X126999Y88745D01*
X126992Y88436D01*
X126976Y88127D01*
X126954Y87819D01*
X126924Y87511D01*
X126886Y87204D01*
X126841Y86898D01*
X126789Y86593D01*
X126729Y86290D01*
X126662Y85988D01*
X126587Y85688D01*
X126505Y85389D01*
X126416Y85093D01*
X126320Y84799D01*
X126216Y84508D01*
X126106Y84219D01*
X125988Y83933D01*
X125864Y83650D01*
X125733Y83370D01*
X125595Y83093D01*
X125450Y82820D01*
X125299Y82550D01*
X125141Y82284D01*
X124976Y82022D01*
X124806Y81764D01*
X124629Y81510D01*
X124446Y81261D01*
X124257Y81016D01*
X124062Y80776D01*
X123861Y80541D01*
X123655Y80311D01*
X123443Y80085D01*
X123225Y79865D01*
X123003Y79651D01*
X122775Y79441D01*
X122542Y79238D01*
X122304Y79040D01*
X122062Y78848D01*
X121815Y78662D01*
X121563Y78482D01*
X121307Y78308D01*
X121047Y78141D01*
X120783Y77980D01*
X120516Y77825D01*
X120244Y77677D01*
X119969Y77535D01*
X119691Y77401D01*
X119409Y77273D01*
X119124Y77152D01*
X118837Y77038D01*
X118547Y76931D01*
X118254Y76831D01*
X117959Y76738D01*
X117662Y76653D01*
X117362Y76575D01*
X117061Y76504D01*
X116759Y76440D01*
X116455Y76384D01*
X116149Y76335D01*
X115843Y76294D01*
X115535Y76260D01*
X115227Y76234D01*
X114918Y76215D01*
X114609Y76204D01*
X114300Y76200D01*
X63500Y76200D01*
X63191Y76204D01*
X62882Y76215D01*
X62573Y76234D01*
X62265Y76260D01*
X61957Y76294D01*
X61651Y76335D01*
X61345Y76384D01*
X61041Y76440D01*
X60739Y76504D01*
X60438Y76575D01*
X60138Y76653D01*
X59841Y76738D01*
X59546Y76831D01*
X59253Y76931D01*
X58963Y77038D01*
X58676Y77152D01*
X58391Y77273D01*
X58109Y77401D01*
X57831Y77535D01*
X57556Y77677D01*
X57284Y77825D01*
X57017Y77980D01*
X56753Y78141D01*
X56493Y78308D01*
X56237Y78482D01*
X55985Y78662D01*
X55738Y78848D01*
X55496Y79040D01*
X55258Y79238D01*
X55025Y79441D01*
X54797Y79651D01*
X54575Y79865D01*
X54357Y80085D01*
X54145Y80311D01*
X53939Y80541D01*
X53738Y80776D01*
X53543Y81016D01*
X53354Y81261D01*
X53171Y81510D01*
X52994Y81764D01*
X52824Y82022D01*
X52659Y82284D01*
X52501Y82550D01*
X52350Y82820D01*
X52205Y83093D01*
X52067Y83370D01*
X51936Y83650D01*
X51812Y83933D01*
X51694Y84219D01*
X51584Y84508D01*
X51480Y84799D01*
X51384Y85093D01*
X51295Y85389D01*
X51213Y85688D01*
X51138Y85988D01*
X51071Y86290D01*
X51011Y86593D01*
X50959Y86898D01*
X50914Y87204D01*
X50876Y87511D01*
X50846Y87819D01*
X50824Y88127D01*
X50808Y88436D01*
X50801Y88745D01*
X50801Y89055D01*
X50808Y89364D01*
X50824Y89673D01*
X50846Y89981D01*
X50876Y90289D01*
X50914Y90596D01*
X50959Y90902D01*
X51011Y91207D01*
X51071Y91510D01*
X51138Y91812D01*
X51213Y92112D01*
X51295Y92411D01*
X51384Y92707D01*
X51480Y93001D01*
X51584Y93292D01*
X51694Y93581D01*
X51812Y93867D01*
X51936Y94150D01*
X52067Y94430D01*
X52205Y94707D01*
X52350Y94980D01*
X52501Y95250D01*
X52659Y95516D01*
X52824Y95778D01*
X52994Y96036D01*
X53171Y96290D01*
X53354Y96539D01*
X53543Y96784D01*
X53738Y97024D01*
X53939Y97259D01*
X54145Y97489D01*
X54357Y97715D01*
X54575Y97935D01*
X54797Y98149D01*
X55025Y98359D01*
X55258Y98562D01*
X55496Y98760D01*
X55738Y98952D01*
X55985Y99138D01*
X56237Y99318D01*
X56493Y99492D01*
X56753Y99659D01*
X57017Y99820D01*
X57284Y99975D01*
X57556Y100123D01*
X57831Y100265D01*
X58109Y100399D01*
X58391Y100527D01*
X58676Y100648D01*
X58963Y100762D01*
X59253Y100869D01*
X59546Y100969D01*
X59841Y101062D01*
X60138Y101147D01*
X60438Y101225D01*
X60739Y101296D01*
X61041Y101360D01*
X61345Y101416D01*
X61651Y101465D01*
X61957Y101506D01*
X62265Y101540D01*
X62573Y101566D01*
X62882Y101585D01*
X63191Y101596D01*
X63500Y101600D01*
X63500Y177800D02*
X114300Y177800D01*
X114609Y177796D01*
X114918Y177785D01*
X115227Y177766D01*
X115535Y177740D01*
X115843Y177706D01*
X116149Y177665D01*
X116455Y177616D01*
X116759Y177560D01*
X117061Y177496D01*
X117362Y177425D01*
X117662Y177347D01*
X117959Y177262D01*
X118254Y177169D01*
X118547Y177069D01*
X118837Y176962D01*
X119124Y176848D01*
X119409Y176727D01*
X119691Y176599D01*
X119969Y176465D01*
X120244Y176323D01*
X120516Y176175D01*
X120783Y176020D01*
X121047Y175859D01*
X121307Y175692D01*
X121563Y175518D01*
X121815Y175338D01*
X122062Y175152D01*
X122304Y174960D01*
X122542Y174762D01*
X122775Y174559D01*
X123003Y174349D01*
X123225Y174135D01*
X123443Y173915D01*
X123655Y173689D01*
X123861Y173459D01*
X124062Y173224D01*
X124257Y172984D01*
X124446Y172739D01*
X124629Y172490D01*
X124806Y172236D01*
X124976Y171978D01*
X125141Y171716D01*
X125299Y171450D01*
X125450Y171180D01*
X125595Y170907D01*
X125733Y170630D01*
X125864Y170350D01*
X125988Y170067D01*
X126106Y169781D01*
X126216Y169492D01*
X126320Y169201D01*
X126416Y168907D01*
X126505Y168611D01*
X126587Y168312D01*
X126662Y168012D01*
X126729Y167710D01*
X126789Y167407D01*
X126841Y167102D01*
X126886Y166796D01*
X126924Y166489D01*
X126954Y166181D01*
X126976Y165873D01*
X126992Y165564D01*
X126999Y165255D01*
X126999Y164945D01*
X126992Y164636D01*
X126976Y164327D01*
X126954Y164019D01*
X126924Y163711D01*
X126886Y163404D01*
X126841Y163098D01*
X126789Y162793D01*
X126729Y162490D01*
X126662Y162188D01*
X126587Y161888D01*
X126505Y161589D01*
X126416Y161293D01*
X126320Y160999D01*
X126216Y160708D01*
X126106Y160419D01*
X125988Y160133D01*
X125864Y159850D01*
X125733Y159570D01*
X125595Y159293D01*
X125450Y159020D01*
X125299Y158750D01*
X125141Y158484D01*
X124976Y158222D01*
X124806Y157964D01*
X124629Y157710D01*
X124446Y157461D01*
X124257Y157216D01*
X124062Y156976D01*
X123861Y156741D01*
X123655Y156511D01*
X123443Y156285D01*
X123225Y156065D01*
X123003Y155851D01*
X122775Y155641D01*
X122542Y155438D01*
X122304Y155240D01*
X122062Y155048D01*
X121815Y154862D01*
X121563Y154682D01*
X121307Y154508D01*
X121047Y154341D01*
X120783Y154180D01*
X120516Y154025D01*
X120244Y153877D01*
X119969Y153735D01*
X119691Y153601D01*
X119409Y153473D01*
X119124Y153352D01*
X118837Y153238D01*
X118547Y153131D01*
X118254Y153031D01*
X117959Y152938D01*
X117662Y152853D01*
X117362Y152775D01*
X117061Y152704D01*
X116759Y152640D01*
X116455Y152584D01*
X116149Y152535D01*
X115843Y152494D01*
X115535Y152460D01*
X115227Y152434D01*
X114918Y152415D01*
X114609Y152404D01*
X114300Y152400D01*
X63500Y152400D01*
X63191Y152404D01*
X62882Y152415D01*
X62573Y152434D01*
X62265Y152460D01*
X61957Y152494D01*
X61651Y152535D01*
X61345Y152584D01*
X61041Y152640D01*
X60739Y152704D01*
X60438Y152775D01*
X60138Y152853D01*
X59841Y152938D01*
X59546Y153031D01*
X59253Y153131D01*
X58963Y153238D01*
X58676Y153352D01*
X58391Y153473D01*
X58109Y153601D01*
X57831Y153735D01*
X57556Y153877D01*
X57284Y154025D01*
X57017Y154180D01*
X56753Y154341D01*
X56493Y154508D01*
X56237Y154682D01*
X55985Y154862D01*
X55738Y155048D01*
X55496Y155240D01*
X55258Y155438D01*
X55025Y155641D01*
X54797Y155851D01*
X54575Y156065D01*
X54357Y156285D01*
X54145Y156511D01*
X53939Y156741D01*
X53738Y156976D01*
X53543Y157216D01*
X53354Y157461D01*
X53171Y157710D01*
X52994Y157964D01*
X52824Y158222D01*
X52659Y158484D01*
X52501Y158750D01*
X52350Y159020D01*
X52205Y159293D01*
X52067Y159570D01*
X51936Y159850D01*
X51812Y160133D01*
X51694Y160419D01*
X51584Y160708D01*
X51480Y160999D01*
X51384Y161293D01*
X51295Y161589D01*
X51213Y161888D01*
X51138Y162188D01*
X51071Y162490D01*
X51011Y162793D01*
X50959Y163098D01*
X50914Y163404D01*
X50876Y163711D01*
X50846Y164019D01*
X50824Y164327D01*
X50808Y164636D01*
X50801Y164945D01*
X50801Y165255D01*
X50808Y165564D01*
X50824Y165873D01*
X50846Y166181D01*
X50876Y166489D01*
X50914Y166796D01*
X50959Y167102D01*
X51011Y167407D01*
X51071Y167710D01*
X51138Y168012D01*
X51213Y168312D01*
X51295Y168611D01*
X51384Y168907D01*
X51480Y169201D01*
X51584Y169492D01*
X51694Y169781D01*
X51812Y170067D01*
X51936Y170350D01*
X52067Y170630D01*
X52205Y170907D01*
X52350Y171180D01*
X52501Y171450D01*
X52659Y171716D01*
X52824Y171978D01*
X52994Y172236D01*
X53171Y172490D01*
X53354Y172739D01*
X53543Y172984D01*
X53738Y173224D01*
X53939Y173459D01*
X54145Y173689D01*
X54357Y173915D01*
X54575Y174135D01*
X54797Y174349D01*
X55025Y174559D01*
X55258Y174762D01*
X55496Y174960D01*
X55738Y175152D01*
X55985Y175338D01*
X56237Y175518D01*
X56493Y175692D01*
X56753Y175859D01*
X57017Y176020D01*
X57284Y176175D01*
X57556Y176323D01*
X57831Y176465D01*
X58109Y176599D01*
X58391Y176727D01*
X58676Y176848D01*
X58963Y176962D01*
X59253Y177069D01*
X59546Y177169D01*
X59841Y177262D01*
X60138Y177347D01*
X60438Y177425D01*
X60739Y177496D01*
X61041Y177560D01*
X61345Y177616D01*
X61651Y177665D01*
X61957Y177706D01*
X62265Y177740D01*
X62573Y177766D01*
X62882Y177785D01*
X63191Y177796D01*
X63500Y177800D01*
X63500Y254000D02*
X114300Y254000D01*
X114609Y253996D01*
X114918Y253985D01*
X115227Y253966D01*
X115535Y253940D01*
X115843Y253906D01*
X116149Y253865D01*
X116455Y253816D01*
X116759Y253760D01*
X117061Y253696D01*
X117362Y253625D01*
X117662Y253547D01*
X117959Y253462D01*
X118254Y253369D01*
X118547Y253269D01*
X118837Y253162D01*
X119124Y253048D01*
X119409Y252927D01*
X119691Y252799D01*
X119969Y252665D01*
X120244Y252523D01*
X120516Y252375D01*
X120783Y252220D01*
X121047Y252059D01*
X121307Y251892D01*
X121563Y251718D01*
X121815Y251538D01*
X122062Y251352D01*
X122304Y251160D01*
X122542Y250962D01*
X122775Y250759D01*
X123003Y250549D01*
X123225Y250335D01*
X123443Y250115D01*
X123655Y249889D01*
X123861Y249659D01*
X124062Y249424D01*
X124257Y249184D01*
X124446Y248939D01*
X124629Y248690D01*
X124806Y248436D01*
X124976Y248178D01*
X125141Y247916D01*
X125299Y247650D01*
X125450Y247380D01*
X125595Y247107D01*
X125733Y246830D01*
X125864Y246550D01*
X125988Y246267D01*
X126106Y245981D01*
X126216Y245692D01*
X126320Y245401D01*
X126416Y245107D01*
X126505Y244811D01*
X126587Y244512D01*
X126662Y244212D01*
X126729Y243910D01*
X126789Y243607D01*
X126841Y243302D01*
X126886Y242996D01*
X126924Y242689D01*
X126954Y242381D01*
X126976Y242073D01*
X126992Y241764D01*
X126999Y241455D01*
X126999Y241145D01*
X126992Y240836D01*
X126976Y240527D01*
X126954Y240219D01*
X126924Y239911D01*
X126886Y239604D01*
X126841Y239298D01*
X126789Y238993D01*
X126729Y238690D01*
X126662Y238388D01*
X126587Y238088D01*
X126505Y237789D01*
X126416Y237493D01*
X126320Y237199D01*
X126216Y236908D01*
X126106Y236619D01*
X125988Y236333D01*
X125864Y236050D01*
X125733Y235770D01*
X125595Y235493D01*
X125450Y235220D01*
X125299Y234950D01*
X125141Y234684D01*
X124976Y234422D01*
X124806Y234164D01*
X124629Y233910D01*
X124446Y233661D01*
X124257Y233416D01*
X124062Y233176D01*
X123861Y232941D01*
X123655Y232711D01*
X123443Y232485D01*
X123225Y232265D01*
X123003Y232051D01*
X122775Y231841D01*
X122542Y231638D01*
X122304Y231440D01*
X122062Y231248D01*
X121815Y231062D01*
X121563Y230882D01*
X121307Y230708D01*
X121047Y230541D01*
X120783Y230380D01*
X120516Y230225D01*
X120244Y230077D01*
X119969Y229935D01*
X119691Y229801D01*
X119409Y229673D01*
X119124Y229552D01*
X118837Y229438D01*
X118547Y229331D01*
X118254Y229231D01*
X117959Y229138D01*
X117662Y229053D01*
X117362Y228975D01*
X117061Y228904D01*
X116759Y228840D01*
X116455Y228784D01*
X116149Y228735D01*
X115843Y228694D01*
X115535Y228660D01*
X115227Y228634D01*
X114918Y228615D01*
X114609Y228604D01*
X114300Y228600D01*
X63500Y228600D01*
X63191Y228604D01*
X62882Y228615D01*
X62573Y228634D01*
X62265Y228660D01*
X61957Y228694D01*
X61651Y228735D01*
X61345Y228784D01*
X61041Y228840D01*
X60739Y228904D01*
X60438Y228975D01*
X60138Y229053D01*
X59841Y229138D01*
X59546Y229231D01*
X59253Y229331D01*
X58963Y229438D01*
X58676Y229552D01*
X58391Y229673D01*
X58109Y229801D01*
X57831Y229935D01*
X57556Y230077D01*
X57284Y230225D01*
X57017Y230380D01*
X56753Y230541D01*
X56493Y230708D01*
X56237Y230882D01*
X55985Y231062D01*
X55738Y231248D01*
X55496Y231440D01*
X55258Y231638D01*
X55025Y231841D01*
X54797Y232051D01*
X54575Y232265D01*
X54357Y232485D01*
X54145Y232711D01*
X53939Y232941D01*
X53738Y233176D01*
X53543Y233416D01*
X53354Y233661D01*
X53171Y233910D01*
X52994Y234164D01*
X52824Y234422D01*
X52659Y234684D01*
X52501Y234950D01*
X52350Y235220D01*
X52205Y235493D01*
X52067Y235770D01*
X51936Y236050D01*
X51812Y236333D01*
X51694Y236619D01*
X51584Y236908D01*
X51480Y237199D01*
X51384Y237493D01*
X51295Y237789D01*
X51213Y238088D01*
X51138Y238388D01*
X51071Y238690D01*
X51011Y238993D01*
X50959Y239298D01*
X50914Y239604D01*
X50876Y239911D01*
X50846Y240219D01*
X50824Y240527D01*
X50808Y240836D01*
X50801Y241145D01*
X50801Y241455D01*
X50808Y241764D01*
X50824Y242073D01*
X50846Y242381D01*
X50876Y242689D01*
X50914Y242996D01*
X50959Y243302D01*
X51011Y243607D01*
X51071Y243910D01*
X51138Y244212D01*
X51213Y244512D01*
X51295Y244811D01*
X51384Y245107D01*
X51480Y245401D01*
X51584Y245692D01*
X51694Y245981D01*
X51812Y246267D01*
X51936Y246550D01*
X52067Y246830D01*
X52205Y247107D01*
X52350Y247380D01*
X52501Y247650D01*
X52659Y247916D01*
X52824Y248178D01*
X52994Y248436D01*
X53171Y248690D01*
X53354Y248939D01*
X53543Y249184D01*
X53738Y249424D01*
X53939Y249659D01*
X54145Y249889D01*
X54357Y250115D01*
X54575Y250335D01*
X54797Y250549D01*
X55025Y250759D01*
X55258Y250962D01*
X55496Y251160D01*
X55738Y251352D01*
X55985Y251538D01*
X56237Y251718D01*
X56493Y251892D01*
X56753Y252059D01*
X57017Y252220D01*
X57284Y252375D01*
X57556Y252523D01*
X57831Y252665D01*
X58109Y252799D01*
X58391Y252927D01*
X58676Y253048D01*
X58963Y253162D01*
X59253Y253269D01*
X59546Y253369D01*
X59841Y253462D01*
X60138Y253547D01*
X60438Y253625D01*
X60739Y253696D01*
X61041Y253760D01*
X61345Y253816D01*
X61651Y253865D01*
X61957Y253906D01*
X62265Y253940D01*
X62573Y253966D01*
X62882Y253985D01*
X63191Y253996D01*
X63500Y254000D01*
D11*
X165555Y419100D03*
D12*
X191135Y429445D02*
X266065Y429445D01*
X266065Y78555D02*
X191135Y78555D01*
D11*
X138850Y647700D03*
D12*
X154950Y657500D02*
X154950Y660400D01*
X226050Y660400D01*
X226050Y657500D01*
X154950Y561700D02*
X154950Y558800D01*
X226050Y558800D01*
X226050Y561700D01*
D13*
X82550Y355600D02*
X69850Y355600D01*
X82550Y355600D02*
X88900Y349250D01*
X88900Y336550D02*
X82550Y330200D01*
X88900Y349250D02*
X95250Y355600D01*
X107950Y355600D01*
X114300Y349250D01*
X114300Y336550D02*
X107950Y330200D01*
X95250Y330200D01*
X88900Y336550D01*
X63500Y336550D02*
X63500Y349250D01*
X69850Y355600D01*
X63500Y336550D02*
X69850Y330200D01*
X82550Y330200D01*
X114300Y336550D02*
X114300Y349250D01*
D14*
X65744Y358577D02*
X65744Y362331D01*
X65743Y358577D02*
X65741Y358512D01*
X65735Y358448D01*
X65725Y358384D01*
X65712Y358320D01*
X65694Y358258D01*
X65673Y358197D01*
X65649Y358137D01*
X65620Y358079D01*
X65588Y358022D01*
X65553Y357968D01*
X65515Y357916D01*
X65473Y357866D01*
X65429Y357819D01*
X65382Y357775D01*
X65332Y357733D01*
X65280Y357695D01*
X65226Y357660D01*
X65169Y357628D01*
X65111Y357599D01*
X65051Y357575D01*
X64990Y357554D01*
X64928Y357536D01*
X64864Y357523D01*
X64800Y357513D01*
X64736Y357507D01*
X64671Y357505D01*
X64135Y357505D01*
X68692Y361259D02*
X70032Y362331D01*
X70032Y357505D01*
X68692Y357505D02*
X71373Y357505D01*
D13*
X508000Y82550D02*
X514350Y88900D01*
X527050Y88900D01*
X533400Y82550D01*
X533400Y69850D02*
X527050Y63500D01*
X514350Y63500D01*
X508000Y69850D01*
X476250Y88900D02*
X463550Y88900D01*
X476250Y88900D02*
X482600Y82550D01*
X482600Y69850D02*
X476250Y63500D01*
X482600Y82550D02*
X488950Y88900D01*
X501650Y88900D01*
X508000Y82550D01*
X508000Y69850D02*
X501650Y63500D01*
X488950Y63500D01*
X482600Y69850D01*
X438150Y88900D02*
X431800Y82550D01*
X438150Y88900D02*
X450850Y88900D01*
X457200Y82550D01*
X457200Y69850D02*
X450850Y63500D01*
X438150Y63500D01*
X431800Y69850D01*
X457200Y82550D02*
X463550Y88900D01*
X457200Y69850D02*
X463550Y63500D01*
X476250Y63500D01*
X400050Y88900D02*
X387350Y88900D01*
X400050Y88900D02*
X406400Y82550D01*
X406400Y69850D02*
X400050Y63500D01*
X406400Y82550D02*
X412750Y88900D01*
X425450Y88900D01*
X431800Y82550D01*
X431800Y69850D02*
X425450Y63500D01*
X412750Y63500D01*
X406400Y69850D01*
X381000Y69850D02*
X381000Y82550D01*
X387350Y88900D01*
X381000Y69850D02*
X387350Y63500D01*
X400050Y63500D01*
X533400Y69850D02*
X533400Y82550D01*
D14*
X441664Y94417D02*
X441664Y98171D01*
X441663Y94417D02*
X441661Y94352D01*
X441655Y94288D01*
X441645Y94224D01*
X441632Y94160D01*
X441614Y94098D01*
X441593Y94037D01*
X441569Y93977D01*
X441540Y93919D01*
X441508Y93862D01*
X441473Y93808D01*
X441435Y93756D01*
X441393Y93706D01*
X441349Y93659D01*
X441302Y93615D01*
X441252Y93573D01*
X441200Y93535D01*
X441146Y93500D01*
X441089Y93468D01*
X441031Y93439D01*
X440971Y93415D01*
X440910Y93394D01*
X440848Y93376D01*
X440784Y93363D01*
X440720Y93353D01*
X440656Y93347D01*
X440591Y93345D01*
X440055Y93345D01*
X446086Y98171D02*
X446154Y98169D01*
X446221Y98163D01*
X446288Y98154D01*
X446355Y98141D01*
X446420Y98124D01*
X446485Y98103D01*
X446548Y98079D01*
X446610Y98051D01*
X446670Y98020D01*
X446728Y97986D01*
X446784Y97948D01*
X446839Y97908D01*
X446890Y97864D01*
X446939Y97817D01*
X446986Y97768D01*
X447030Y97717D01*
X447070Y97662D01*
X447108Y97606D01*
X447142Y97548D01*
X447173Y97488D01*
X447201Y97426D01*
X447225Y97363D01*
X447246Y97298D01*
X447263Y97233D01*
X447276Y97166D01*
X447285Y97099D01*
X447291Y97032D01*
X447293Y96964D01*
X446086Y98171D02*
X446008Y98169D01*
X445930Y98163D01*
X445853Y98153D01*
X445776Y98140D01*
X445700Y98122D01*
X445625Y98101D01*
X445551Y98076D01*
X445479Y98047D01*
X445408Y98015D01*
X445339Y97979D01*
X445271Y97940D01*
X445206Y97897D01*
X445143Y97851D01*
X445082Y97802D01*
X445024Y97750D01*
X444969Y97695D01*
X444916Y97638D01*
X444867Y97578D01*
X444820Y97515D01*
X444777Y97451D01*
X444737Y97384D01*
X444700Y97315D01*
X444667Y97244D01*
X444637Y97172D01*
X444611Y97099D01*
X446891Y96026D02*
X446940Y96075D01*
X446987Y96127D01*
X447030Y96182D01*
X447071Y96239D01*
X447109Y96298D01*
X447143Y96359D01*
X447174Y96422D01*
X447202Y96486D01*
X447226Y96552D01*
X447246Y96618D01*
X447263Y96686D01*
X447276Y96755D01*
X447285Y96824D01*
X447291Y96894D01*
X447293Y96964D01*
X446891Y96026D02*
X444612Y93345D01*
X447293Y93345D01*
D13*
X901700Y82550D02*
X908050Y88900D01*
X920750Y88900D01*
X927100Y82550D01*
X927100Y69850D02*
X920750Y63500D01*
X908050Y63500D01*
X901700Y69850D01*
X869950Y88900D02*
X857250Y88900D01*
X869950Y88900D02*
X876300Y82550D01*
X876300Y69850D02*
X869950Y63500D01*
X876300Y82550D02*
X882650Y88900D01*
X895350Y88900D01*
X901700Y82550D01*
X901700Y69850D02*
X895350Y63500D01*
X882650Y63500D01*
X876300Y69850D01*
X831850Y88900D02*
X825500Y82550D01*
X831850Y88900D02*
X844550Y88900D01*
X850900Y82550D01*
X850900Y69850D02*
X844550Y63500D01*
X831850Y63500D01*
X825500Y69850D01*
X850900Y82550D02*
X857250Y88900D01*
X850900Y69850D02*
X857250Y63500D01*
X869950Y63500D01*
X793750Y88900D02*
X781050Y88900D01*
X793750Y88900D02*
X800100Y82550D01*
X800100Y69850D02*
X793750Y63500D01*
X800100Y82550D02*
X806450Y88900D01*
X819150Y88900D01*
X825500Y82550D01*
X825500Y69850D02*
X819150Y63500D01*
X806450Y63500D01*
X800100Y69850D01*
X774700Y69850D02*
X774700Y82550D01*
X781050Y88900D01*
X774700Y69850D02*
X781050Y63500D01*
X793750Y63500D01*
X927100Y69850D02*
X927100Y82550D01*
D14*
X835364Y94417D02*
X835364Y98171D01*
X835363Y94417D02*
X835361Y94352D01*
X835355Y94288D01*
X835345Y94224D01*
X835332Y94160D01*
X835314Y94098D01*
X835293Y94037D01*
X835269Y93977D01*
X835240Y93919D01*
X835208Y93862D01*
X835173Y93808D01*
X835135Y93756D01*
X835093Y93706D01*
X835049Y93659D01*
X835002Y93615D01*
X834952Y93573D01*
X834900Y93535D01*
X834846Y93500D01*
X834789Y93468D01*
X834731Y93439D01*
X834671Y93415D01*
X834610Y93394D01*
X834548Y93376D01*
X834484Y93363D01*
X834420Y93353D01*
X834356Y93347D01*
X834291Y93345D01*
X833755Y93345D01*
X838312Y93345D02*
X839652Y93345D01*
X839723Y93347D01*
X839795Y93353D01*
X839865Y93362D01*
X839935Y93375D01*
X840005Y93392D01*
X840073Y93413D01*
X840140Y93437D01*
X840206Y93465D01*
X840270Y93496D01*
X840333Y93531D01*
X840393Y93569D01*
X840452Y93610D01*
X840508Y93654D01*
X840562Y93701D01*
X840613Y93750D01*
X840661Y93803D01*
X840707Y93858D01*
X840749Y93915D01*
X840789Y93975D01*
X840825Y94036D01*
X840858Y94100D01*
X840887Y94165D01*
X840913Y94231D01*
X840936Y94299D01*
X840955Y94368D01*
X840970Y94438D01*
X840981Y94508D01*
X840989Y94579D01*
X840993Y94650D01*
X840993Y94722D01*
X840989Y94793D01*
X840981Y94864D01*
X840970Y94934D01*
X840955Y95004D01*
X840936Y95073D01*
X840913Y95141D01*
X840887Y95207D01*
X840858Y95272D01*
X840825Y95336D01*
X840789Y95397D01*
X840749Y95457D01*
X840707Y95514D01*
X840661Y95569D01*
X840613Y95622D01*
X840562Y95671D01*
X840508Y95718D01*
X840452Y95762D01*
X840393Y95803D01*
X840333Y95841D01*
X840270Y95876D01*
X840206Y95907D01*
X840140Y95935D01*
X840073Y95959D01*
X840005Y95980D01*
X839935Y95997D01*
X839865Y96010D01*
X839795Y96019D01*
X839723Y96025D01*
X839652Y96027D01*
X839920Y98171D02*
X838312Y98171D01*
X839920Y98171D02*
X839985Y98169D01*
X840049Y98163D01*
X840113Y98153D01*
X840177Y98140D01*
X840239Y98122D01*
X840300Y98101D01*
X840360Y98077D01*
X840418Y98048D01*
X840475Y98016D01*
X840529Y97981D01*
X840581Y97943D01*
X840631Y97901D01*
X840678Y97857D01*
X840722Y97810D01*
X840764Y97760D01*
X840802Y97708D01*
X840837Y97654D01*
X840869Y97597D01*
X840898Y97539D01*
X840922Y97479D01*
X840943Y97418D01*
X840961Y97356D01*
X840974Y97292D01*
X840984Y97228D01*
X840990Y97164D01*
X840992Y97099D01*
X840990Y97034D01*
X840984Y96970D01*
X840974Y96906D01*
X840961Y96842D01*
X840943Y96780D01*
X840922Y96719D01*
X840898Y96659D01*
X840869Y96601D01*
X840837Y96544D01*
X840802Y96490D01*
X840764Y96438D01*
X840722Y96388D01*
X840678Y96341D01*
X840631Y96297D01*
X840581Y96255D01*
X840529Y96217D01*
X840475Y96182D01*
X840418Y96150D01*
X840360Y96121D01*
X840300Y96097D01*
X840239Y96076D01*
X840177Y96058D01*
X840113Y96045D01*
X840049Y96035D01*
X839985Y96029D01*
X839920Y96027D01*
X839920Y96026D02*
X838848Y96026D01*
D13*
X704850Y88900D02*
X698500Y82550D01*
X704850Y88900D02*
X717550Y88900D01*
X723900Y82550D01*
X723900Y69850D02*
X717550Y63500D01*
X704850Y63500D01*
X698500Y69850D01*
X666750Y88900D02*
X654050Y88900D01*
X666750Y88900D02*
X673100Y82550D01*
X673100Y69850D02*
X666750Y63500D01*
X673100Y82550D02*
X679450Y88900D01*
X692150Y88900D01*
X698500Y82550D01*
X698500Y69850D02*
X692150Y63500D01*
X679450Y63500D01*
X673100Y69850D01*
X628650Y88900D02*
X622300Y82550D01*
X628650Y88900D02*
X641350Y88900D01*
X647700Y82550D01*
X647700Y69850D02*
X641350Y63500D01*
X628650Y63500D01*
X622300Y69850D01*
X647700Y82550D02*
X654050Y88900D01*
X647700Y69850D02*
X654050Y63500D01*
X666750Y63500D01*
X590550Y88900D02*
X577850Y88900D01*
X590550Y88900D02*
X596900Y82550D01*
X596900Y69850D02*
X590550Y63500D01*
X596900Y82550D02*
X603250Y88900D01*
X615950Y88900D01*
X622300Y82550D01*
X622300Y69850D02*
X615950Y63500D01*
X603250Y63500D01*
X596900Y69850D01*
X571500Y69850D02*
X571500Y82550D01*
X577850Y88900D01*
X571500Y69850D02*
X577850Y63500D01*
X590550Y63500D01*
X723900Y69850D02*
X723900Y82550D01*
D14*
X632164Y94417D02*
X632164Y98171D01*
X632163Y94417D02*
X632161Y94352D01*
X632155Y94288D01*
X632145Y94224D01*
X632132Y94160D01*
X632114Y94098D01*
X632093Y94037D01*
X632069Y93977D01*
X632040Y93919D01*
X632008Y93862D01*
X631973Y93808D01*
X631935Y93756D01*
X631893Y93706D01*
X631849Y93659D01*
X631802Y93615D01*
X631752Y93573D01*
X631700Y93535D01*
X631646Y93500D01*
X631589Y93468D01*
X631531Y93439D01*
X631471Y93415D01*
X631410Y93394D01*
X631348Y93376D01*
X631284Y93363D01*
X631220Y93353D01*
X631156Y93347D01*
X631091Y93345D01*
X630555Y93345D01*
X635112Y94417D02*
X636184Y98171D01*
X635112Y94417D02*
X637793Y94417D01*
X636988Y93345D02*
X636988Y95490D01*
D13*
X361950Y660400D02*
X355600Y666750D01*
X355600Y679450D01*
X361950Y685800D01*
X374650Y685800D02*
X381000Y679450D01*
X381000Y666750D01*
X374650Y660400D01*
X355600Y628650D02*
X355600Y615950D01*
X355600Y628650D02*
X361950Y635000D01*
X374650Y635000D02*
X381000Y628650D01*
X361950Y635000D02*
X355600Y641350D01*
X355600Y654050D01*
X361950Y660400D01*
X374650Y660400D02*
X381000Y654050D01*
X381000Y641350D01*
X374650Y635000D01*
X355600Y590550D02*
X361950Y584200D01*
X355600Y590550D02*
X355600Y603250D01*
X361950Y609600D01*
X374650Y609600D02*
X381000Y603250D01*
X381000Y590550D01*
X374650Y584200D01*
X361950Y609600D02*
X355600Y615950D01*
X374650Y609600D02*
X381000Y615950D01*
X381000Y628650D01*
X355600Y552450D02*
X355600Y539750D01*
X355600Y552450D02*
X361950Y558800D01*
X374650Y558800D02*
X381000Y552450D01*
X361950Y558800D02*
X355600Y565150D01*
X355600Y577850D01*
X361950Y584200D01*
X374650Y584200D02*
X381000Y577850D01*
X381000Y565150D01*
X374650Y558800D01*
X374650Y533400D02*
X361950Y533400D01*
X355600Y539750D01*
X374650Y533400D02*
X381000Y539750D01*
X381000Y552450D01*
X374650Y685800D02*
X361950Y685800D01*
D14*
X350083Y594064D02*
X346329Y594064D01*
X350083Y594063D02*
X350148Y594061D01*
X350212Y594055D01*
X350276Y594045D01*
X350340Y594032D01*
X350402Y594014D01*
X350463Y593993D01*
X350523Y593969D01*
X350581Y593940D01*
X350638Y593908D01*
X350692Y593873D01*
X350744Y593835D01*
X350794Y593793D01*
X350841Y593749D01*
X350885Y593702D01*
X350927Y593652D01*
X350965Y593600D01*
X351000Y593546D01*
X351032Y593489D01*
X351061Y593431D01*
X351085Y593371D01*
X351106Y593310D01*
X351124Y593248D01*
X351137Y593184D01*
X351147Y593120D01*
X351153Y593056D01*
X351155Y592991D01*
X351155Y592455D01*
X348474Y597012D02*
X348474Y598620D01*
X348476Y598685D01*
X348482Y598749D01*
X348492Y598813D01*
X348505Y598877D01*
X348523Y598939D01*
X348544Y599000D01*
X348568Y599060D01*
X348597Y599118D01*
X348629Y599175D01*
X348664Y599229D01*
X348702Y599281D01*
X348744Y599331D01*
X348788Y599378D01*
X348835Y599422D01*
X348885Y599464D01*
X348937Y599502D01*
X348991Y599537D01*
X349048Y599569D01*
X349106Y599598D01*
X349166Y599622D01*
X349227Y599643D01*
X349289Y599661D01*
X349353Y599674D01*
X349417Y599684D01*
X349481Y599690D01*
X349546Y599692D01*
X349546Y599693D02*
X349814Y599693D01*
X349885Y599691D01*
X349957Y599685D01*
X350027Y599676D01*
X350097Y599663D01*
X350167Y599646D01*
X350235Y599625D01*
X350302Y599601D01*
X350368Y599573D01*
X350432Y599542D01*
X350495Y599507D01*
X350555Y599469D01*
X350614Y599428D01*
X350670Y599384D01*
X350724Y599337D01*
X350775Y599288D01*
X350823Y599235D01*
X350869Y599180D01*
X350911Y599123D01*
X350951Y599063D01*
X350987Y599002D01*
X351020Y598938D01*
X351049Y598873D01*
X351075Y598807D01*
X351098Y598739D01*
X351117Y598670D01*
X351132Y598600D01*
X351143Y598530D01*
X351151Y598459D01*
X351155Y598388D01*
X351155Y598316D01*
X351151Y598245D01*
X351143Y598174D01*
X351132Y598104D01*
X351117Y598034D01*
X351098Y597965D01*
X351075Y597897D01*
X351049Y597831D01*
X351020Y597766D01*
X350987Y597702D01*
X350951Y597641D01*
X350911Y597581D01*
X350869Y597524D01*
X350823Y597469D01*
X350775Y597416D01*
X350724Y597367D01*
X350670Y597320D01*
X350614Y597276D01*
X350555Y597235D01*
X350495Y597197D01*
X350432Y597162D01*
X350368Y597131D01*
X350302Y597103D01*
X350235Y597079D01*
X350167Y597058D01*
X350097Y597041D01*
X350027Y597028D01*
X349957Y597019D01*
X349885Y597013D01*
X349814Y597011D01*
X349814Y597012D02*
X348474Y597012D01*
X348383Y597014D01*
X348292Y597020D01*
X348202Y597029D01*
X348111Y597043D01*
X348022Y597060D01*
X347934Y597081D01*
X347846Y597106D01*
X347759Y597135D01*
X347674Y597167D01*
X347590Y597202D01*
X347508Y597242D01*
X347428Y597284D01*
X347349Y597330D01*
X347273Y597380D01*
X347199Y597432D01*
X347126Y597488D01*
X347057Y597547D01*
X346990Y597608D01*
X346925Y597673D01*
X346864Y597740D01*
X346805Y597809D01*
X346749Y597881D01*
X346697Y597956D01*
X346647Y598032D01*
X346601Y598111D01*
X346559Y598191D01*
X346519Y598273D01*
X346484Y598357D01*
X346452Y598442D01*
X346423Y598529D01*
X346398Y598616D01*
X346377Y598705D01*
X346360Y598794D01*
X346346Y598884D01*
X346337Y598975D01*
X346331Y599066D01*
X346329Y599157D01*
X129300Y786900D02*
X129300Y914900D01*
X531100Y914900D01*
X531100Y786900D02*
X129300Y786900D01*
X531100Y786900D02*
X531100Y914900D01*
X434500Y903050D02*
X434502Y903209D01*
X434508Y903368D01*
X434518Y903526D01*
X434532Y903685D01*
X434550Y903843D01*
X434571Y904000D01*
X434597Y904157D01*
X434627Y904313D01*
X434660Y904469D01*
X434698Y904623D01*
X434739Y904777D01*
X434784Y904929D01*
X434833Y905080D01*
X434886Y905230D01*
X434942Y905379D01*
X435003Y905526D01*
X435066Y905671D01*
X435134Y905815D01*
X435205Y905958D01*
X435279Y906098D01*
X435357Y906236D01*
X435439Y906373D01*
X435524Y906507D01*
X435612Y906640D01*
X435703Y906770D01*
X435798Y906897D01*
X435896Y907022D01*
X435997Y907145D01*
X436101Y907265D01*
X436208Y907383D01*
X436318Y907498D01*
X436431Y907610D01*
X436546Y907719D01*
X436664Y907825D01*
X436785Y907929D01*
X436909Y908029D01*
X437034Y908126D01*
X437163Y908220D01*
X437293Y908310D01*
X437426Y908398D01*
X437561Y908482D01*
X437698Y908562D01*
X437837Y908640D01*
X437978Y908713D01*
X438120Y908783D01*
X438265Y908850D01*
X438411Y908913D01*
X438558Y908972D01*
X438707Y909028D01*
X438858Y909079D01*
X439009Y909127D01*
X439162Y909171D01*
X439316Y909212D01*
X439470Y909248D01*
X439626Y909281D01*
X439782Y909310D01*
X439939Y909334D01*
X440097Y909355D01*
X440255Y909372D01*
X440413Y909385D01*
X440572Y909394D01*
X440731Y909399D01*
X440890Y909400D01*
X441049Y909397D01*
X441207Y909390D01*
X441366Y909379D01*
X441524Y909364D01*
X441682Y909345D01*
X441839Y909322D01*
X441996Y909296D01*
X442152Y909265D01*
X442307Y909231D01*
X442461Y909192D01*
X442615Y909150D01*
X442767Y909104D01*
X442918Y909054D01*
X443067Y909000D01*
X443216Y908943D01*
X443362Y908882D01*
X443508Y908817D01*
X443651Y908749D01*
X443793Y908677D01*
X443933Y908601D01*
X444071Y908523D01*
X444207Y908440D01*
X444341Y908355D01*
X444472Y908266D01*
X444602Y908173D01*
X444729Y908078D01*
X444853Y907979D01*
X444976Y907877D01*
X445095Y907773D01*
X445212Y907665D01*
X445326Y907554D01*
X445437Y907441D01*
X445546Y907325D01*
X445651Y907206D01*
X445754Y907084D01*
X445853Y906960D01*
X445950Y906834D01*
X446043Y906705D01*
X446133Y906574D01*
X446219Y906440D01*
X446302Y906305D01*
X446382Y906167D01*
X446458Y906028D01*
X446531Y905887D01*
X446600Y905744D01*
X446666Y905599D01*
X446728Y905452D01*
X446786Y905305D01*
X446841Y905155D01*
X446892Y905005D01*
X446939Y904853D01*
X446982Y904700D01*
X447021Y904546D01*
X447057Y904391D01*
X447088Y904235D01*
X447116Y904079D01*
X447140Y903922D01*
X447160Y903764D01*
X447176Y903606D01*
X447188Y903447D01*
X447196Y903288D01*
X447200Y903129D01*
X447200Y902971D01*
X447196Y902812D01*
X447188Y902653D01*
X447176Y902494D01*
X447160Y902336D01*
X447140Y902178D01*
X447116Y902021D01*
X447088Y901865D01*
X447057Y901709D01*
X447021Y901554D01*
X446982Y901400D01*
X446939Y901247D01*
X446892Y901095D01*
X446841Y900945D01*
X446786Y900795D01*
X446728Y900648D01*
X446666Y900501D01*
X446600Y900356D01*
X446531Y900213D01*
X446458Y900072D01*
X446382Y899933D01*
X446302Y899795D01*
X446219Y899660D01*
X446133Y899526D01*
X446043Y899395D01*
X445950Y899266D01*
X445853Y899140D01*
X445754Y899016D01*
X445651Y898894D01*
X445546Y898775D01*
X445437Y898659D01*
X445326Y898546D01*
X445212Y898435D01*
X445095Y898327D01*
X444976Y898223D01*
X444853Y898121D01*
X444729Y898022D01*
X444602Y897927D01*
X444472Y897834D01*
X444341Y897745D01*
X444207Y897660D01*
X444071Y897577D01*
X443933Y897499D01*
X443793Y897423D01*
X443651Y897351D01*
X443508Y897283D01*
X443362Y897218D01*
X443216Y897157D01*
X443067Y897100D01*
X442918Y897046D01*
X442767Y896996D01*
X442615Y896950D01*
X442461Y896908D01*
X442307Y896869D01*
X442152Y896835D01*
X441996Y896804D01*
X441839Y896778D01*
X441682Y896755D01*
X441524Y896736D01*
X441366Y896721D01*
X441207Y896710D01*
X441049Y896703D01*
X440890Y896700D01*
X440731Y896701D01*
X440572Y896706D01*
X440413Y896715D01*
X440255Y896728D01*
X440097Y896745D01*
X439939Y896766D01*
X439782Y896790D01*
X439626Y896819D01*
X439470Y896852D01*
X439316Y896888D01*
X439162Y896929D01*
X439009Y896973D01*
X438858Y897021D01*
X438707Y897072D01*
X438558Y897128D01*
X438411Y897187D01*
X438265Y897250D01*
X438120Y897317D01*
X437978Y897387D01*
X437837Y897460D01*
X437698Y897538D01*
X437561Y897618D01*
X437426Y897702D01*
X437293Y897790D01*
X437163Y897880D01*
X437034Y897974D01*
X436909Y898071D01*
X436785Y898171D01*
X436664Y898275D01*
X436546Y898381D01*
X436431Y898490D01*
X436318Y898602D01*
X436208Y898717D01*
X436101Y898835D01*
X435997Y898955D01*
X435896Y899078D01*
X435798Y899203D01*
X435703Y899330D01*
X435612Y899460D01*
X435524Y899593D01*
X435439Y899727D01*
X435357Y899864D01*
X435279Y900002D01*
X435205Y900142D01*
X435134Y900285D01*
X435066Y900429D01*
X435003Y900574D01*
X434942Y900721D01*
X434886Y900870D01*
X434833Y901020D01*
X434784Y901171D01*
X434739Y901323D01*
X434698Y901477D01*
X434660Y901631D01*
X434627Y901787D01*
X434597Y901943D01*
X434571Y902100D01*
X434550Y902257D01*
X434532Y902415D01*
X434518Y902574D01*
X434508Y902732D01*
X434502Y902891D01*
X434500Y903050D01*
D13*
X431800Y414020D02*
X381000Y414020D01*
X431800Y414020D02*
X431800Y406400D01*
X431800Y398780D01*
X381000Y398780D01*
X381000Y406400D01*
X381000Y414020D01*
X431800Y406400D02*
X434340Y406400D01*
X381000Y406400D02*
X378460Y406400D01*
D14*
X402348Y417195D02*
X402348Y422021D01*
X403689Y422021D01*
X403760Y422019D01*
X403832Y422013D01*
X403902Y422004D01*
X403972Y421991D01*
X404042Y421974D01*
X404110Y421953D01*
X404177Y421929D01*
X404243Y421901D01*
X404307Y421870D01*
X404370Y421835D01*
X404430Y421797D01*
X404489Y421756D01*
X404545Y421712D01*
X404599Y421665D01*
X404650Y421616D01*
X404698Y421563D01*
X404744Y421508D01*
X404786Y421451D01*
X404826Y421391D01*
X404862Y421330D01*
X404895Y421266D01*
X404924Y421201D01*
X404950Y421135D01*
X404973Y421067D01*
X404992Y420998D01*
X405007Y420928D01*
X405018Y420858D01*
X405026Y420787D01*
X405030Y420716D01*
X405030Y420644D01*
X405026Y420573D01*
X405018Y420502D01*
X405007Y420432D01*
X404992Y420362D01*
X404973Y420293D01*
X404950Y420225D01*
X404924Y420159D01*
X404895Y420094D01*
X404862Y420030D01*
X404826Y419969D01*
X404786Y419909D01*
X404744Y419852D01*
X404698Y419797D01*
X404650Y419744D01*
X404599Y419695D01*
X404545Y419648D01*
X404489Y419604D01*
X404430Y419563D01*
X404370Y419525D01*
X404307Y419490D01*
X404243Y419459D01*
X404177Y419431D01*
X404110Y419407D01*
X404042Y419386D01*
X403972Y419369D01*
X403902Y419356D01*
X403832Y419347D01*
X403760Y419341D01*
X403689Y419339D01*
X403689Y419340D02*
X402348Y419340D01*
X403957Y419340D02*
X405029Y417195D01*
X407771Y420949D02*
X409111Y422021D01*
X409111Y417195D01*
X407771Y417195D02*
X410452Y417195D01*
D10*
X500380Y317500D02*
X541020Y317500D01*
X541020Y419100D02*
X500380Y419100D01*
X500380Y387350D01*
X500380Y349250D01*
X500380Y317500D01*
X541020Y317500D02*
X541020Y419100D01*
X513080Y387350D02*
X513080Y349250D01*
X513080Y387350D02*
X528320Y387350D01*
X528320Y349250D01*
X513080Y349250D01*
X506730Y387350D02*
X500380Y387350D01*
X506730Y387350D02*
X506730Y349250D01*
X500380Y349250D01*
D15*
X520700Y358775D03*
D14*
X382400Y337500D02*
X381913Y337494D01*
X381426Y337476D01*
X380940Y337447D01*
X380455Y337405D01*
X379971Y337352D01*
X379488Y337287D01*
X379007Y337210D01*
X378528Y337122D01*
X378051Y337022D01*
X377577Y336910D01*
X377106Y336787D01*
X376638Y336652D01*
X376173Y336506D01*
X375712Y336349D01*
X375255Y336180D01*
X374803Y336001D01*
X374354Y335810D01*
X373911Y335609D01*
X373472Y335397D01*
X373039Y335174D01*
X372612Y334941D01*
X372190Y334697D01*
X371774Y334444D01*
X371365Y334180D01*
X370962Y333906D01*
X370566Y333623D01*
X370177Y333330D01*
X369795Y333028D01*
X369420Y332716D01*
X369054Y332395D01*
X368695Y332066D01*
X368344Y331728D01*
X368002Y331381D01*
X367668Y331027D01*
X367343Y330664D01*
X367027Y330293D01*
X366720Y329915D01*
X366422Y329530D01*
X366134Y329137D01*
X365856Y328738D01*
X365587Y328331D01*
X365328Y327919D01*
X365079Y327500D01*
X364841Y327075D01*
X364613Y326645D01*
X364396Y326209D01*
X364189Y325768D01*
X363993Y325322D01*
X363808Y324872D01*
X363634Y324417D01*
X363471Y323958D01*
X363320Y323495D01*
X363179Y323028D01*
X363050Y322559D01*
X362933Y322086D01*
X362827Y321611D01*
X362733Y321133D01*
X362650Y320653D01*
X362579Y320171D01*
X362520Y319687D01*
X362473Y319203D01*
X362437Y318717D01*
X362413Y318230D01*
X362401Y317744D01*
X362401Y317256D01*
X362413Y316770D01*
X362437Y316283D01*
X362473Y315797D01*
X362520Y315313D01*
X362579Y314829D01*
X362650Y314347D01*
X362733Y313867D01*
X362827Y313389D01*
X362933Y312914D01*
X363050Y312441D01*
X363179Y311972D01*
X363320Y311505D01*
X363471Y311042D01*
X363634Y310583D01*
X363808Y310128D01*
X363993Y309678D01*
X364189Y309232D01*
X364396Y308791D01*
X364613Y308355D01*
X364841Y307925D01*
X365079Y307500D01*
X365328Y307081D01*
X365587Y306669D01*
X365856Y306262D01*
X366134Y305863D01*
X366422Y305470D01*
X366720Y305085D01*
X367027Y304707D01*
X367343Y304336D01*
X367668Y303973D01*
X368002Y303619D01*
X368344Y303272D01*
X368695Y302934D01*
X369054Y302605D01*
X369420Y302284D01*
X369795Y301972D01*
X370177Y301670D01*
X370566Y301377D01*
X370962Y301094D01*
X371365Y300820D01*
X371774Y300556D01*
X372190Y300303D01*
X372612Y300059D01*
X373039Y299826D01*
X373472Y299603D01*
X373911Y299391D01*
X374354Y299190D01*
X374803Y298999D01*
X375255Y298820D01*
X375712Y298651D01*
X376173Y298494D01*
X376638Y298348D01*
X377106Y298213D01*
X377577Y298090D01*
X378051Y297978D01*
X378528Y297878D01*
X379007Y297790D01*
X379488Y297713D01*
X379971Y297648D01*
X380455Y297595D01*
X380940Y297553D01*
X381426Y297524D01*
X381913Y297506D01*
X382400Y297500D01*
X432400Y297500D02*
X432887Y297506D01*
X433374Y297524D01*
X433860Y297553D01*
X434345Y297595D01*
X434829Y297648D01*
X435312Y297713D01*
X435793Y297790D01*
X436272Y297878D01*
X436749Y297978D01*
X437223Y298090D01*
X437694Y298213D01*
X438162Y298348D01*
X438627Y298494D01*
X439088Y298651D01*
X439545Y298820D01*
X439997Y298999D01*
X440446Y299190D01*
X440889Y299391D01*
X441328Y299603D01*
X441761Y299826D01*
X442188Y300059D01*
X442610Y300303D01*
X443026Y300556D01*
X443435Y300820D01*
X443838Y301094D01*
X444234Y301377D01*
X444623Y301670D01*
X445005Y301972D01*
X445380Y302284D01*
X445746Y302605D01*
X446105Y302934D01*
X446456Y303272D01*
X446798Y303619D01*
X447132Y303973D01*
X447457Y304336D01*
X447773Y304707D01*
X448080Y305085D01*
X448378Y305470D01*
X448666Y305863D01*
X448944Y306262D01*
X449213Y306669D01*
X449472Y307081D01*
X449721Y307500D01*
X449959Y307925D01*
X450187Y308355D01*
X450404Y308791D01*
X450611Y309232D01*
X450807Y309678D01*
X450992Y310128D01*
X451166Y310583D01*
X451329Y311042D01*
X451480Y311505D01*
X451621Y311972D01*
X451750Y312441D01*
X451867Y312914D01*
X451973Y313389D01*
X452067Y313867D01*
X452150Y314347D01*
X452221Y314829D01*
X452280Y315313D01*
X452327Y315797D01*
X452363Y316283D01*
X452387Y316770D01*
X452399Y317256D01*
X452399Y317744D01*
X452387Y318230D01*
X452363Y318717D01*
X452327Y319203D01*
X452280Y319687D01*
X452221Y320171D01*
X452150Y320653D01*
X452067Y321133D01*
X451973Y321611D01*
X451867Y322086D01*
X451750Y322559D01*
X451621Y323028D01*
X451480Y323495D01*
X451329Y323958D01*
X451166Y324417D01*
X450992Y324872D01*
X450807Y325322D01*
X450611Y325768D01*
X450404Y326209D01*
X450187Y326645D01*
X449959Y327075D01*
X449721Y327500D01*
X449472Y327919D01*
X449213Y328331D01*
X448944Y328738D01*
X448666Y329137D01*
X448378Y329530D01*
X448080Y329915D01*
X447773Y330293D01*
X447457Y330664D01*
X447132Y331027D01*
X446798Y331381D01*
X446456Y331728D01*
X446105Y332066D01*
X445746Y332395D01*
X445380Y332716D01*
X445005Y333028D01*
X444623Y333330D01*
X444234Y333623D01*
X443838Y333906D01*
X443435Y334180D01*
X443026Y334444D01*
X442610Y334697D01*
X442188Y334941D01*
X441761Y335174D01*
X441328Y335397D01*
X440889Y335609D01*
X440446Y335810D01*
X439997Y336001D01*
X439545Y336180D01*
X439088Y336349D01*
X438627Y336506D01*
X438162Y336652D01*
X437694Y336787D01*
X437223Y336910D01*
X436749Y337022D01*
X436272Y337122D01*
X435793Y337210D01*
X435312Y337287D01*
X434829Y337352D01*
X434345Y337405D01*
X433860Y337447D01*
X433374Y337476D01*
X432887Y337494D01*
X432400Y337500D01*
X382400Y337500D01*
X382400Y297500D02*
X432400Y297500D01*
M02*
