G04 EAGLE Gerber RS-274X export*
G75*
%MOMM*%
%FSLAX34Y34*%
%LPD*%
%INSoldermask Top*%
%IPPOS*%
%AMOC8*
5,1,8,0,0,1.08239X$1,22.5*%
G01*
G04 Define Apertures*
%ADD10C,2.082800*%
%ADD11C,1.644200*%
%ADD12C,1.655100*%
%ADD13C,1.981200*%
%ADD14C,1.524000*%
%ADD15C,1.879600*%
%ADD16C,0.959600*%
D10*
X76200Y88900D03*
X101600Y88900D03*
X76200Y165100D03*
X101600Y165100D03*
X76200Y241300D03*
X101600Y241300D03*
D11*
X177800Y419100D03*
X177800Y393700D03*
X177800Y368300D03*
X177800Y342900D03*
X177800Y317500D03*
X177800Y292100D03*
X177800Y266700D03*
X177800Y241300D03*
X177800Y215900D03*
X177800Y190500D03*
X177800Y165100D03*
X177800Y139700D03*
X177800Y114300D03*
X177800Y88900D03*
X279400Y88900D03*
X279400Y114300D03*
X279400Y139700D03*
X279400Y165100D03*
X279400Y190500D03*
X279400Y215900D03*
X279400Y241300D03*
X279400Y266700D03*
X279400Y292100D03*
X279400Y317500D03*
X279400Y342900D03*
X279400Y368300D03*
X279400Y393700D03*
X279400Y419100D03*
D12*
X152400Y647700D03*
X152400Y622300D03*
X152400Y596900D03*
X152400Y571500D03*
X228600Y571500D03*
X228600Y596900D03*
X228600Y622300D03*
X228600Y647700D03*
D10*
X76200Y342900D03*
X101600Y342900D03*
X393700Y76200D03*
X419100Y76200D03*
X444500Y76200D03*
X469900Y76200D03*
X495300Y76200D03*
X520700Y76200D03*
X787400Y76200D03*
X812800Y76200D03*
X838200Y76200D03*
X863600Y76200D03*
X889000Y76200D03*
X914400Y76200D03*
X584200Y76200D03*
X609600Y76200D03*
X635000Y76200D03*
X660400Y76200D03*
X685800Y76200D03*
X711200Y76200D03*
X368300Y546100D03*
X368300Y571500D03*
X368300Y596900D03*
X368300Y622300D03*
X368300Y647700D03*
X368300Y673100D03*
D13*
X241300Y800100D03*
X266700Y800100D03*
X292100Y800100D03*
X317500Y800100D03*
X342900Y800100D03*
X368300Y800100D03*
X419100Y800100D03*
X393700Y800100D03*
X419100Y901700D03*
X292100Y901700D03*
X317500Y901700D03*
X342900Y901700D03*
X393700Y901700D03*
X368300Y901700D03*
X266700Y901700D03*
X241300Y901700D03*
D10*
X368300Y406400D03*
X444500Y406400D03*
D14*
X520700Y336804D02*
X520700Y323596D01*
X520700Y399796D02*
X520700Y413004D01*
D15*
X381000Y317500D03*
X406400Y317500D03*
X431800Y317500D03*
D16*
X237009Y237009D03*
X266700Y76200D03*
X165100Y50800D03*
X63500Y787400D03*
X177800Y787400D03*
X304800Y774700D03*
X260068Y774700D03*
X279400Y12700D03*
X203200Y254000D03*
X254000Y203200D03*
X279400Y-11458D03*
X495300Y152400D03*
X558800Y76200D03*
X384403Y698500D03*
X165100Y698500D03*
X127000Y215900D03*
X228600Y203200D03*
X190500Y152400D03*
M02*
